<svg width="458" height="208" viewBox="0 0 458 208" fill="none" xmlns="http://www.w3.org/2000/svg">
<g clip-path="url(#clip0_1725_4745)">
<path d="M0 75.5762V119.235C0 125.719 0 128.962 0.54662 131.657C1.61606 136.928 4.2147 141.767 8.01802 145.571C11.8214 149.374 16.6608 151.973 21.9322 153.042C24.6264 153.587 27.8686 153.587 34.3542 153.587H74.4323C84.1432 153.587 88.9981 153.587 92.906 152.238C96.4367 151.019 99.644 149.012 102.285 146.371C104.926 143.73 106.933 140.523 108.152 136.992C109.502 133.084 109.502 128.229 109.502 118.518V75.5762C109.502 71.755 109.502 69.8431 109.311 68.237C108.587 62.133 105.83 56.4502 101.484 52.1038C97.1372 47.7574 91.4545 45.0002 85.3505 44.2763C83.7443 44.0859 81.8337 44.0859 78.0113 44.0859H31.2856C21.905 44.0859 17.2147 44.0859 13.488 45.5432C10.7609 46.6099 8.28412 48.2296 6.21359 50.3003C4.14306 52.3711 2.52362 54.848 1.45722 57.5753C0 61.3006 0 66.0596 0 75.5749V75.5762Z" fill="#E1E1E1"/>
<path d="M78.0189 46.8203H23.2688C11.9293 46.8203 2.73682 56.0128 2.73682 67.3522V122.102C2.73682 133.442 11.9293 142.634 23.2688 142.634H78.0189C89.3583 142.634 98.5508 133.442 98.5508 122.102V67.3522C98.5508 56.0128 89.3583 46.8203 78.0189 46.8203Z" fill="white"/>
<path d="M43.9484 129.334C51.1205 129.334 55.7642 126.208 58.1346 121.69H58.5128V128.419H71.2781V95.6862C71.2781 84.123 61.483 79.2578 50.6775 79.2578C39.0508 79.2578 31.4046 84.8186 29.5406 93.6655L41.9886 94.6759C42.9056 91.4531 45.7812 89.084 50.6153 89.084C55.1955 89.084 57.8172 91.3897 57.8172 95.3714V95.5606C57.8172 98.6887 54.5012 99.0993 46.0649 99.9206C36.4602 100.805 27.8347 104.028 27.8347 114.865C27.8347 124.471 34.6908 129.334 43.9484 129.334ZM47.8019 120.047C43.6634 120.047 40.6932 118.12 40.6932 114.423C40.6932 110.631 43.8214 108.768 48.561 108.104C51.4987 107.694 56.3017 106.998 57.9131 105.924V111.073C57.9131 116.161 53.7111 120.047 47.8019 120.047Z" fill="black"/>
<path d="M116.345 75.5762V119.235C116.345 125.719 116.345 128.962 116.893 131.657C117.962 136.928 120.56 141.767 124.364 145.57C128.167 149.374 133.006 151.972 138.277 153.042C140.971 153.587 144.215 153.587 150.699 153.587H190.778C200.489 153.587 205.344 153.587 209.252 152.238C212.783 151.019 215.99 149.012 218.631 146.371C221.273 143.73 223.279 140.523 224.498 136.992C225.848 133.084 225.848 128.229 225.848 118.518V75.5762C225.848 71.755 225.848 69.8431 225.657 68.237C224.933 62.1331 222.176 56.4504 217.829 52.1041C213.483 47.7577 207.8 45.0005 201.697 44.2763C200.09 44.0859 198.178 44.0859 194.357 44.0859H147.632C138.251 44.0859 133.561 44.0859 129.834 45.5432C127.107 46.6099 124.63 48.2296 122.56 50.3004C120.489 52.3711 118.87 54.8481 117.803 57.5753C116.346 61.3006 116.345 66.0596 116.345 75.5762Z" fill="#E1E1E1"/>
<path d="M194.365 46.8203H139.615C128.275 46.8203 119.083 56.0128 119.083 67.3522V122.102C119.083 133.442 128.275 142.634 139.615 142.634H194.365C205.705 142.634 214.897 133.442 214.897 122.102V67.3522C214.897 56.0128 205.705 46.8203 194.365 46.8203Z" fill="white"/>
<path d="M167.789 129.374C179.795 129.374 187.883 123.53 189.779 114.525L177.332 113.704C175.973 117.4 172.497 119.328 168.01 119.328C161.281 119.328 157.016 114.872 157.016 107.638V107.605H190.064V103.91C190.064 87.4166 180.08 79.2652 167.253 79.2652C152.972 79.2652 143.714 89.4075 143.714 104.383C143.714 119.771 152.845 129.374 167.789 129.374ZM157.016 99.2647C157.3 93.7351 161.503 89.3129 167.474 89.3129C173.319 89.3129 177.363 93.4838 177.394 99.2647H157.016ZM162.103 73.641H171.613L181.249 59.2656H168.801L162.103 73.641Z" fill="black"/>
<path d="M232.692 75.5762V119.235C232.692 125.719 232.692 128.962 233.238 131.657C234.308 136.928 236.906 141.767 240.709 145.57C244.512 149.374 249.351 151.972 254.623 153.042C257.317 153.587 260.56 153.587 267.045 153.587H307.124C316.835 153.587 321.69 153.587 325.598 152.238C329.128 151.019 332.336 149.012 334.977 146.371C337.618 143.73 339.624 140.523 340.843 136.992C342.193 133.084 342.193 128.229 342.193 118.518V75.5762C342.193 71.755 342.193 69.8431 342.003 68.237C341.279 62.1331 338.521 56.4504 334.175 52.1041C329.829 47.7577 324.146 45.0005 318.042 44.2763C316.436 44.0859 314.524 44.0859 310.703 44.0859H263.977C254.597 44.0859 249.906 44.0859 246.18 45.5432C243.453 46.6098 240.976 48.2295 238.905 50.3002C236.835 52.371 235.215 54.848 234.149 57.5753C232.692 61.3006 232.692 66.0596 232.692 75.5762Z" fill="#E1E1E1"/>
<path d="M310.711 46.8203H255.961C244.621 46.8203 235.429 56.0128 235.429 67.3522V122.102C235.429 133.442 244.621 142.634 255.961 142.634H310.711C322.05 142.634 331.243 133.442 331.243 122.102V67.3522C331.243 56.0128 322.05 46.8203 310.711 46.8203Z" fill="white"/>
<path d="M263.086 128.419H303.875V117.677H280.748V117.33L303.054 88.6417V79.8906H263.909V90.6326H286.846V90.9798L263.086 120.395V128.419Z" fill="black"/>
<path d="M349.038 75.5762V119.235C349.038 125.719 349.038 128.962 349.584 131.657C350.654 136.928 353.252 141.767 357.055 145.57C360.858 149.374 365.698 151.972 370.969 153.042C373.664 153.587 376.906 153.587 383.391 153.587H423.47C433.181 153.587 438.036 153.587 441.944 152.238C445.475 151.019 448.682 149.012 451.323 146.371C453.964 143.73 455.97 140.523 457.19 136.992C458.539 133.084 458.539 128.229 458.539 118.518V75.5762C458.539 71.755 458.539 69.8431 458.349 68.237C457.625 62.133 454.868 56.4502 450.521 52.1038C446.175 47.7574 440.492 45.0002 434.388 44.2763C432.782 44.0859 430.872 44.0859 427.049 44.0859H380.323C370.943 44.0859 366.252 44.0859 362.526 45.5432C359.799 46.6099 357.322 48.2296 355.252 50.3004C353.181 52.3711 351.562 54.8481 350.495 57.5753C349.038 61.3006 349.038 66.0596 349.038 75.5762Z" fill="#E1E1E1"/>
<path d="M427.057 46.8203H372.307C360.967 46.8203 351.775 56.0128 351.775 67.3522V122.102C351.775 133.442 360.967 142.634 372.307 142.634H427.057C438.396 142.634 447.589 133.442 447.589 122.102V67.3522C447.589 56.0128 438.396 46.8203 427.057 46.8203Z" fill="white"/>
<path d="M392.986 129.334C400.159 129.334 404.804 126.208 407.173 121.69H407.552V128.419H420.316V95.6862C420.316 84.123 410.521 79.2578 399.717 79.2578C388.089 79.2578 380.444 84.8186 378.58 93.6655L391.028 94.6759C391.944 91.4531 394.819 89.084 399.653 89.084C404.235 89.084 406.857 91.3897 406.857 95.3714V95.5606C406.857 98.6887 403.539 99.0993 395.103 99.9206C385.498 100.805 376.873 104.028 376.873 114.865C376.873 124.471 383.729 129.334 392.986 129.334ZM396.841 120.047C392.703 120.047 389.733 118.12 389.733 114.423C389.733 110.631 392.861 108.768 397.599 108.104C400.538 107.694 405.34 106.998 406.951 105.924V111.073C406.951 116.161 402.749 120.047 396.841 120.047Z" fill="black"/>
</g>
<defs>
<clipPath id="clip0_1725_4745">
<rect width="457.6" height="208" fill="white"/>
</clipPath>
</defs>
</svg>
