<svg width="109" height="50" viewBox="0 0 109 50" fill="none" xmlns="http://www.w3.org/2000/svg">
<g clip-path="url(#clip0_2455_27945)">
<path d="M36.7357 18.2418C36.7357 19.2583 36.8456 20.0825 37.0379 20.6869C37.2577 21.2913 37.5324 21.9506 37.917 22.6649C38.0544 22.8847 38.1093 23.1044 38.1093 23.2968C38.1093 23.5715 37.9445 23.8462 37.5873 24.1209L35.8566 25.2748C35.6093 25.4396 35.3621 25.522 35.1423 25.522C34.8676 25.522 34.5928 25.3847 34.3181 25.1374C33.9335 24.7253 33.6038 24.2858 33.3291 23.8462C33.0544 23.3792 32.7796 22.8572 32.4774 22.2253C30.3346 24.7528 27.6423 26.0165 24.4005 26.0165C22.0928 26.0165 20.2522 25.3572 18.906 24.0385C17.5599 22.7198 16.873 20.9616 16.873 18.7638C16.873 16.4286 17.6972 14.533 19.373 13.1044C21.0489 11.6759 23.2741 10.9616 26.1038 10.9616C27.0379 10.9616 27.9994 11.044 29.0159 11.1814C30.0324 11.3187 31.0763 11.5385 32.1752 11.7858V9.78027C32.1752 7.69236 31.7357 6.23631 30.884 5.38466C30.0049 4.53302 28.5214 4.12093 26.406 4.12093C25.4445 4.12093 24.4555 4.23082 23.439 4.47807C22.4225 4.72532 21.4335 5.02752 20.4719 5.41214C20.0324 5.60444 19.7027 5.71433 19.5104 5.76928C19.3181 5.82422 19.1807 5.8517 19.0708 5.8517C18.6862 5.8517 18.4939 5.57697 18.4939 5.00005V3.65389C18.4939 3.21433 18.5489 2.88466 18.6862 2.69236C18.8236 2.50005 19.0708 2.30774 19.4555 2.11543C20.417 1.62093 21.5708 1.20884 22.917 0.879169C24.2632 0.522026 25.6917 0.357191 27.2027 0.357191C30.4719 0.357191 32.8621 1.09895 34.4005 2.58247C35.9115 4.06598 36.6807 6.31873 36.6807 9.34071V18.2418H36.7357ZM25.5818 22.4176C26.4884 22.4176 27.4225 22.2528 28.4115 21.9231C29.4005 21.5935 30.2796 20.9891 31.0214 20.1649C31.461 19.6429 31.7906 19.066 31.9555 18.4066C32.1203 17.7473 32.2302 16.9506 32.2302 16.0165V14.8627C31.4335 14.6704 30.5818 14.5055 29.7027 14.3957C28.8236 14.2858 27.9719 14.2308 27.1203 14.2308C25.2796 14.2308 23.9335 14.588 23.0269 15.3297C22.1203 16.0715 21.6807 17.1154 21.6807 18.4891C21.6807 19.7803 22.0104 20.7418 22.6972 21.4011C23.3566 22.088 24.3181 22.4176 25.5818 22.4176ZM47.6423 25.3847C47.1478 25.3847 46.8181 25.3022 46.5983 25.1099C46.3785 24.9451 46.1862 24.5605 46.0214 24.0385L39.5654 2.80225C39.4005 2.2528 39.3181 1.89565 39.3181 1.70334C39.3181 1.26378 39.5379 1.01653 39.9774 1.01653H42.6698C43.1917 1.01653 43.5489 1.09895 43.7412 1.29126C43.961 1.45609 44.1258 1.84071 44.2906 2.36269L48.906 20.5495L53.1917 2.36269C53.3291 1.81324 53.4939 1.45609 53.7137 1.29126C53.9335 1.12642 54.3181 1.01653 54.8126 1.01653H57.0104C57.5324 1.01653 57.8895 1.09895 58.1093 1.29126C58.3291 1.45609 58.5214 1.84071 58.6313 2.36269L62.9719 20.7693L67.7247 2.36269C67.8895 1.81324 68.0818 1.45609 68.2741 1.29126C68.4939 1.12642 68.8511 1.01653 69.3456 1.01653H71.9005C72.3401 1.01653 72.5873 1.23631 72.5873 1.70334C72.5873 1.84071 72.5599 1.97807 72.5324 2.14291C72.5049 2.30774 72.45 2.52752 72.3401 2.82972L65.7192 24.066C65.5544 24.6154 65.3621 24.9726 65.1423 25.1374C64.9225 25.3022 64.5654 25.4121 64.0983 25.4121H61.7357C61.2137 25.4121 60.8566 25.3297 60.6368 25.1374C60.417 24.9451 60.2247 24.588 60.1148 24.0385L55.8566 6.31873L51.6258 24.011C51.4884 24.5605 51.3236 24.9176 51.1038 25.1099C50.884 25.3022 50.4994 25.3847 50.0049 25.3847H47.6423ZM82.9445 26.1264C81.5159 26.1264 80.0873 25.9616 78.7137 25.6319C77.3401 25.3022 76.2687 24.9451 75.5544 24.533C75.1148 24.2858 74.8126 24.011 74.7027 23.7638C74.5928 23.5165 74.5379 23.2418 74.5379 22.9946V21.5935C74.5379 21.0165 74.7577 20.7418 75.1698 20.7418C75.3346 20.7418 75.4994 20.7693 75.6643 20.8242C75.8291 20.8792 76.0763 20.9891 76.3511 21.0989C77.2851 21.511 78.3016 21.8407 79.373 22.0605C80.472 22.2803 81.5434 22.3902 82.6423 22.3902C84.373 22.3902 85.7192 22.088 86.6533 21.4836C87.5873 20.8792 88.0818 20 88.0818 18.8737C88.0818 18.1044 87.8346 17.4726 87.3401 16.9506C86.8456 16.4286 85.9115 15.9616 84.5654 15.522L80.5818 14.2858C78.5763 13.6539 77.0928 12.7198 76.1862 11.4836C75.2796 10.2748 74.8126 8.92862 74.8126 7.50005C74.8126 6.3462 75.0599 5.32972 75.5544 4.4506C76.0489 3.57148 76.7082 2.80225 77.5324 2.19785C78.3566 1.56598 79.2906 1.09895 80.3895 0.769279C81.4884 0.439609 82.6423 0.302246 83.8511 0.302246C84.4555 0.302246 85.0873 0.329719 85.6917 0.412136C86.3236 0.494554 86.9005 0.604444 87.4774 0.714334C88.0269 0.851697 88.5489 0.989059 89.0434 1.15389C89.5379 1.31873 89.9225 1.48356 90.1972 1.6484C90.5818 1.86818 90.8566 2.08796 91.0214 2.33521C91.1862 2.55499 91.2687 2.85719 91.2687 3.24181V4.53301C91.2687 5.10994 91.0489 5.41214 90.6368 5.41214C90.417 5.41214 90.0599 5.30225 89.5928 5.08247C88.0269 4.36818 86.2687 4.01104 84.3181 4.01104C82.7522 4.01104 81.5159 4.25829 80.6643 4.78027C79.8126 5.30225 79.373 6.09895 79.373 7.22532C79.373 7.99455 79.6478 8.65389 80.1972 9.17587C80.7467 9.69785 81.7632 10.2198 83.2192 10.6869L87.1203 11.9231C89.0983 12.555 90.5269 13.4341 91.3785 14.5605C92.2302 15.6869 92.6423 16.9781 92.6423 18.4066C92.6423 19.588 92.395 20.6594 91.928 21.5935C91.4335 22.5275 90.7741 23.3517 89.9225 24.011C89.0709 24.6978 88.0544 25.1924 86.873 25.5495C85.6368 25.9341 84.3456 26.1264 82.9445 26.1264Z" fill="#252F3E"/>
<path d="M36.7357 18.2418C36.7357 19.2583 36.8456 20.0825 37.0379 20.6869C37.2577 21.2913 37.5324 21.9506 37.917 22.6649C38.0544 22.8847 38.1093 23.1044 38.1093 23.2968C38.1093 23.5715 37.9445 23.8462 37.5873 24.1209L35.8566 25.2748C35.6093 25.4396 35.3621 25.522 35.1423 25.522C34.8676 25.522 34.5928 25.3847 34.3181 25.1374C33.9335 24.7253 33.6038 24.2858 33.3291 23.8462C33.0544 23.3792 32.7796 22.8572 32.4774 22.2253C30.3346 24.7528 27.6423 26.0165 24.4005 26.0165C22.0928 26.0165 20.2522 25.3572 18.906 24.0385C17.5599 22.7198 16.873 20.9616 16.873 18.7638C16.873 16.4286 17.6972 14.533 19.373 13.1044C21.0489 11.6759 23.2741 10.9616 26.1038 10.9616C27.0379 10.9616 27.9994 11.044 29.0159 11.1814C30.0324 11.3187 31.0763 11.5385 32.1752 11.7858V9.78027C32.1752 7.69236 31.7357 6.23631 30.884 5.38466C30.0049 4.53302 28.5214 4.12093 26.406 4.12093C25.4445 4.12093 24.4555 4.23082 23.439 4.47807C22.4225 4.72532 21.4335 5.02752 20.4719 5.41214C20.0324 5.60444 19.7027 5.71433 19.5104 5.76928C19.3181 5.82422 19.1807 5.8517 19.0708 5.8517C18.6862 5.8517 18.4939 5.57697 18.4939 5.00005V3.65389C18.4939 3.21433 18.5489 2.88466 18.6862 2.69236C18.8236 2.50005 19.0708 2.30774 19.4555 2.11543C20.417 1.62093 21.5708 1.20884 22.917 0.879169C24.2632 0.522026 25.6917 0.357191 27.2027 0.357191C30.4719 0.357191 32.8621 1.09895 34.4005 2.58247C35.9115 4.06598 36.6807 6.31873 36.6807 9.34071V18.2418H36.7357ZM25.5818 22.4176C26.4884 22.4176 27.4225 22.2528 28.4115 21.9231C29.4005 21.5935 30.2796 20.9891 31.0214 20.1649C31.461 19.6429 31.7906 19.066 31.9555 18.4066C32.1203 17.7473 32.2302 16.9506 32.2302 16.0165V14.8627C31.4335 14.6704 30.5818 14.5055 29.7027 14.3957C28.8236 14.2858 27.9719 14.2308 27.1203 14.2308C25.2796 14.2308 23.9335 14.588 23.0269 15.3297C22.1203 16.0715 21.6807 17.1154 21.6807 18.4891C21.6807 19.7803 22.0104 20.7418 22.6972 21.4011C23.3566 22.088 24.3181 22.4176 25.5818 22.4176ZM47.6423 25.3847C47.1478 25.3847 46.8181 25.3022 46.5983 25.1099C46.3785 24.9451 46.1862 24.5605 46.0214 24.0385L39.5654 2.80225C39.4005 2.2528 39.3181 1.89565 39.3181 1.70334C39.3181 1.26378 39.5379 1.01653 39.9774 1.01653H42.6698C43.1917 1.01653 43.5489 1.09895 43.7412 1.29126C43.961 1.45609 44.1258 1.84071 44.2906 2.36269L48.906 20.5495L53.1917 2.36269C53.3291 1.81324 53.4939 1.45609 53.7137 1.29126C53.9335 1.12642 54.3181 1.01653 54.8126 1.01653H57.0104C57.5324 1.01653 57.8895 1.09895 58.1093 1.29126C58.3291 1.45609 58.5214 1.84071 58.6313 2.36269L62.9719 20.7693L67.7247 2.36269C67.8895 1.81324 68.0818 1.45609 68.2741 1.29126C68.4939 1.12642 68.8511 1.01653 69.3456 1.01653H71.9005C72.3401 1.01653 72.5873 1.23631 72.5873 1.70334C72.5873 1.84071 72.5599 1.97807 72.5324 2.14291C72.5049 2.30774 72.45 2.52752 72.3401 2.82972L65.7192 24.066C65.5544 24.6154 65.3621 24.9726 65.1423 25.1374C64.9225 25.3022 64.5654 25.4121 64.0983 25.4121H61.7357C61.2137 25.4121 60.8566 25.3297 60.6368 25.1374C60.417 24.9451 60.2247 24.588 60.1148 24.0385L55.8566 6.31873L51.6258 24.011C51.4884 24.5605 51.3236 24.9176 51.1038 25.1099C50.884 25.3022 50.4994 25.3847 50.0049 25.3847H47.6423ZM82.9445 26.1264C81.5159 26.1264 80.0873 25.9616 78.7137 25.6319C77.3401 25.3022 76.2687 24.9451 75.5544 24.533C75.1148 24.2858 74.8126 24.011 74.7027 23.7638C74.5928 23.5165 74.5379 23.2418 74.5379 22.9946V21.5935C74.5379 21.0165 74.7577 20.7418 75.1698 20.7418C75.3346 20.7418 75.4994 20.7693 75.6643 20.8242C75.8291 20.8792 76.0763 20.9891 76.3511 21.0989C77.2851 21.511 78.3016 21.8407 79.373 22.0605C80.472 22.2803 81.5434 22.3902 82.6423 22.3902C84.373 22.3902 85.7192 22.088 86.6533 21.4836C87.5873 20.8792 88.0818 20 88.0818 18.8737C88.0818 18.1044 87.8346 17.4726 87.3401 16.9506C86.8456 16.4286 85.9115 15.9616 84.5654 15.522L80.5818 14.2858C78.5763 13.6539 77.0928 12.7198 76.1862 11.4836C75.2796 10.2748 74.8126 8.92862 74.8126 7.50005C74.8126 6.3462 75.0599 5.32972 75.5544 4.4506C76.0489 3.57148 76.7082 2.80225 77.5324 2.19785C78.3566 1.56598 79.2906 1.09895 80.3895 0.769279C81.4884 0.439609 82.6423 0.302246 83.8511 0.302246C84.4555 0.302246 85.0873 0.329719 85.6917 0.412136C86.3236 0.494554 86.9005 0.604444 87.4774 0.714334C88.0269 0.851697 88.5489 0.989059 89.0434 1.15389C89.5379 1.31873 89.9225 1.48356 90.1972 1.6484C90.5818 1.86818 90.8566 2.08796 91.0214 2.33521C91.1862 2.55499 91.2687 2.85719 91.2687 3.24181V4.53301C91.2687 5.10994 91.0489 5.41214 90.6368 5.41214C90.417 5.41214 90.0599 5.30225 89.5928 5.08247C88.0269 4.36818 86.2687 4.01104 84.3181 4.01104C82.7522 4.01104 81.5159 4.25829 80.6643 4.78027C79.8126 5.30225 79.373 6.09895 79.373 7.22532C79.373 7.99455 79.6478 8.65389 80.1972 9.17587C80.7467 9.69785 81.7632 10.2198 83.2192 10.6869L87.1203 11.9231C89.0983 12.555 90.5269 13.4341 91.3785 14.5605C92.2302 15.6869 92.6423 16.9781 92.6423 18.4066C92.6423 19.588 92.395 20.6594 91.928 21.5935C91.4335 22.5275 90.7741 23.3517 89.9225 24.011C89.0709 24.6978 88.0544 25.1924 86.873 25.5495C85.6368 25.9341 84.3456 26.1264 82.9445 26.1264Z" fill="white"/>
<path fill-rule="evenodd" clip-rule="evenodd" d="M88.1371 39.478C79.0987 46.1538 65.9668 49.6978 54.6756 49.6978C38.8514 49.6978 24.5932 43.8461 13.8239 34.1209C12.9723 33.3516 13.7415 32.3077 14.758 32.9121C26.4064 39.6703 40.7745 43.7637 55.6371 43.7637C65.6646 43.7637 76.6811 41.6758 86.8185 37.3901C88.3295 36.7033 89.6207 38.3791 88.1371 39.478Z" fill="#FF9900"/>
<path fill-rule="evenodd" clip-rule="evenodd" d="M91.9005 35.1923C90.7466 33.7088 84.2631 34.4781 81.3236 34.8352C80.4444 34.9451 80.3071 34.1759 81.1038 33.5989C86.2686 29.9726 94.7576 31.0165 95.7466 32.2253C96.7356 33.4616 95.4719 41.9506 90.6367 46.0165C89.895 46.6484 89.1807 46.3187 89.5104 45.4945C90.6093 42.7748 93.0543 36.6484 91.9005 35.1923Z" fill="#FF9900"/>
</g>
<defs>
<clipPath id="clip0_2455_27945">
<rect width="83.5165" height="50" fill="white" transform="translate(13)"/>
</clipPath>
</defs>
</svg>
