<svg width="196" height="50" viewBox="0 0 196 50" fill="none" xmlns="http://www.w3.org/2000/svg">
<path d="M25.2171 39.7378V34.0291C31.2926 34.0291 35.966 28.0291 33.6585 21.6796C32.7822 19.3203 30.9129 17.4271 28.547 16.5825C22.1794 14.2815 16.1624 18.9417 16.1624 25H10.4375C10.4375 15.3592 19.7843 7.84462 29.9198 10.9903C34.3595 12.3592 37.8646 15.8835 39.2374 20.2815C42.3919 30.4174 34.8853 39.7378 25.2171 39.7378Z" fill="#0080FF"/>
<path fill-rule="evenodd" clip-rule="evenodd" d="M25.2172 34.0291H19.5215V28.3495H25.2172V34.0291Z" fill="#0080FF"/>
<path fill-rule="evenodd" clip-rule="evenodd" d="M19.521 38.398H15.1396V34.0291H19.521V38.398Z" fill="#0080FF"/>
<path fill-rule="evenodd" clip-rule="evenodd" d="M15.1403 34.0291H11.46V30.3883H15.1403V34.0291Z" fill="#0080FF"/>
<path d="M63.0129 18.7961C61.3188 17.6311 59.2157 17.0194 56.7622 17.0194H51.417V33.9417H56.7622C59.2157 33.9417 61.3188 33.3301 63.0129 32.0777C63.9476 31.4369 64.6778 30.5048 65.1743 29.3689C65.6709 28.233 65.9338 26.8932 65.9338 25.3786C65.9338 23.8932 65.6709 22.5534 65.1743 21.4175C64.6778 20.3107 63.9476 19.4078 63.0129 18.7961ZM54.5423 19.9029H56.2364C58.1058 19.9029 59.6539 20.2815 60.8222 20.9806C62.1074 21.767 62.7792 23.2524 62.7792 25.3786C62.7792 27.5922 62.1074 29.1359 60.8222 29.9806C59.7123 30.7087 58.1642 31.0874 56.2656 31.0874H54.5715V19.9029H54.5423Z" fill="#0080FF"/>
<path d="M69.6721 16.8154C69.1463 16.8154 68.7082 16.9902 68.3577 17.3397C68.0072 17.6892 67.8027 18.1261 67.8027 18.6213C67.8027 19.1455 67.978 19.5824 68.3577 19.9319C68.7082 20.2814 69.1463 20.4853 69.6721 20.4853C70.1979 20.4853 70.636 20.3106 70.9865 19.9319C71.337 19.5824 71.5415 19.1164 71.5415 18.6213C71.5415 18.097 71.3662 17.6601 70.9865 17.3397C70.636 16.9902 70.1686 16.8154 69.6721 16.8154Z" fill="#0080FF"/>
<path d="M71.1325 22.0291H68.124V33.9708H71.1325V22.0291Z" fill="#0080FF"/>
<path d="M82.086 23.0193C81.1805 22.2038 80.1582 21.7378 79.0775 21.7378C77.4126 21.7378 76.0397 22.3203 74.959 23.4271C73.8783 24.5339 73.3525 25.9902 73.3525 27.7087C73.3525 29.398 73.8783 30.8252 74.959 31.9902C76.0397 33.097 77.4126 33.6795 79.0775 33.6795C80.2458 33.6795 81.2389 33.3592 82.0568 32.7184V33.0096C82.0568 33.9999 81.7939 34.7572 81.2681 35.3106C80.7424 35.8349 80.0121 36.097 79.1067 36.097C77.7047 36.097 76.8576 35.5436 75.7769 34.1164L73.7323 36.0679L73.7907 36.1553C74.2288 36.7669 74.9006 37.3786 75.8061 37.9611C76.7116 38.5436 77.8215 38.8349 79.1651 38.8349C80.9468 38.8349 82.4073 38.2815 83.4588 37.2038C84.5395 36.1261 85.0653 34.6698 85.0653 32.864V22.0291H82.1152V23.0193H82.086ZM81.2973 30.0679C80.7716 30.6504 80.0998 30.9417 79.2235 30.9417C78.3472 30.9417 77.6754 30.6504 77.1789 30.0679C76.6531 29.4854 76.3903 28.699 76.3903 27.7378C76.3903 26.7766 76.6531 25.9611 77.1789 25.3786C77.7047 24.796 78.3765 24.4757 79.2235 24.4757C80.0998 24.4757 80.7716 24.7669 81.2973 25.3786C81.8231 25.9611 82.086 26.7766 82.086 27.7378C82.086 28.699 81.7939 29.4854 81.2973 30.0679Z" fill="#0080FF"/>
<path d="M90.6149 22.0291H87.6064V33.9708H90.6149V22.0291Z" fill="#0080FF"/>
<path d="M89.1545 16.8154C88.6288 16.8154 88.1906 16.9902 87.8401 17.3397C87.4896 17.6892 87.2852 18.1261 87.2852 18.6213C87.2852 19.1455 87.4604 19.5824 87.8401 19.9319C88.1906 20.2814 88.6288 20.4853 89.1545 20.4853C89.6803 20.4853 90.1184 20.3106 90.4689 19.9319C90.8194 19.5824 91.0239 19.1164 91.0239 18.6213C91.0239 18.097 90.8486 17.6601 90.4689 17.3397C90.1184 16.9902 89.6511 16.8154 89.1545 16.8154Z" fill="#0080FF"/>
<path d="M97.2164 18.8252H94.2663V22.0582H92.543V24.7961H94.2663V29.7475C94.2663 31.2912 94.5876 32.398 95.201 33.0388C95.8144 33.6796 96.8951 34 98.4431 34C98.9397 34 99.4362 33.9708 99.9036 33.9417H100.05V31.2038L99.0273 31.2621C98.2971 31.2621 97.8298 31.1456 97.5961 30.8834C97.3624 30.6213 97.2456 30.097 97.2456 29.3106V24.7669H100.05V22.0291H97.2456V18.8252H97.2164Z" fill="#0080FF"/>
<path d="M117.137 17.0194H114.129V33.9417H117.137V17.0194Z" fill="#0080FF"/>
<path d="M147.543 29.6892C147.018 30.3009 146.463 30.8252 146.025 31.0873C145.616 31.3494 145.09 31.4951 144.477 31.4951C143.6 31.4951 142.87 31.1747 142.286 30.5048C141.702 29.8349 141.41 28.9902 141.41 27.9708C141.41 26.9514 141.702 26.1067 142.257 25.4659C142.841 24.796 143.542 24.4757 144.418 24.4757C145.382 24.4757 146.404 25.0873 147.281 26.1067L149.267 24.2135C147.982 22.5242 146.317 21.7378 144.33 21.7378C142.666 21.7378 141.234 22.3494 140.066 23.5145C138.898 24.6795 138.313 26.1941 138.313 27.9708C138.313 29.7475 138.898 31.2329 140.066 32.4271C141.234 33.6213 142.666 34.2038 144.33 34.2038C146.521 34.2038 148.274 33.2718 149.442 31.5533L147.543 29.6892Z" fill="#0080FF"/>
<path d="M159.898 23.6892C159.46 23.1067 158.876 22.6116 158.175 22.2621C157.445 21.9126 156.627 21.7378 155.692 21.7378C153.998 21.7378 152.625 22.3494 151.603 23.5727C150.61 24.796 150.084 26.2815 150.084 28.0582C150.084 29.864 150.639 31.3494 151.749 32.5145C152.83 33.6504 154.319 34.2329 156.101 34.2329C158.116 34.2329 159.811 33.4174 161.037 31.7863L161.096 31.699L159.139 29.8058C158.963 30.0388 158.701 30.2718 158.467 30.5048C158.175 30.796 157.883 30.9999 157.591 31.1456C157.153 31.3786 156.627 31.4659 156.072 31.4659C155.225 31.4659 154.553 31.2329 154.027 30.7378C153.531 30.3009 153.239 29.6892 153.18 28.932H161.154L161.183 27.8252C161.183 27.0388 161.066 26.3106 160.862 25.6116C160.658 24.9417 160.336 24.3009 159.898 23.6892ZM153.326 26.5145C153.472 25.932 153.735 25.4659 154.115 25.0873C154.524 24.6795 155.049 24.4757 155.692 24.4757C156.422 24.4757 156.977 24.6795 157.357 25.0873C157.707 25.4659 157.912 25.932 157.97 26.4854H153.326V26.5145Z" fill="#0080FF"/>
<path d="M171.465 22.932C170.56 22.1456 169.304 21.767 167.727 21.767C166.734 21.767 165.799 22 164.952 22.4077C164.163 22.8155 163.404 23.4563 162.907 24.3301L162.937 24.3592L164.864 26.1942C165.653 24.9417 166.529 24.5048 167.698 24.5048C168.34 24.5048 168.837 24.6796 169.246 25C169.655 25.3204 169.83 25.7573 169.83 26.2815V26.8641C169.07 26.631 168.34 26.5145 167.61 26.5145C166.12 26.5145 164.894 26.8641 163.988 27.5631C163.083 28.2621 162.615 29.2815 162.615 30.534C162.615 31.6408 162.995 32.5728 163.784 33.2427C164.572 33.8835 165.536 34.233 166.675 34.233C167.814 34.233 168.895 33.767 169.859 32.9806V33.9709H172.809V26.2815C172.868 24.8543 172.4 23.7184 171.465 22.932ZM166.12 29.398C166.471 29.165 166.938 29.0485 167.552 29.0485C168.282 29.0485 169.041 29.1942 169.83 29.4854V30.6505C169.187 31.2621 168.311 31.5534 167.23 31.5534C166.704 31.5534 166.296 31.4369 166.033 31.2039C165.77 30.9709 165.624 30.7087 165.624 30.3301C165.624 29.9514 165.799 29.631 166.12 29.398Z" fill="#0080FF"/>
<path d="M184.434 23.165C183.587 22.233 182.418 21.767 180.929 21.767C179.731 21.767 178.767 22.1165 178.037 22.7864V22.0582H175.087V34H178.095V27.3883C178.095 26.4854 178.3 25.7573 178.738 25.2621C179.176 24.7378 179.731 24.5048 180.52 24.5048C181.192 24.5048 181.717 24.7378 182.097 25.1747C182.477 25.6408 182.681 26.2524 182.681 27.0388V33.9417H185.69V27.0388C185.69 25.4077 185.281 24.0971 184.434 23.165Z" fill="#0080FF"/>
<path d="M110.36 22.932C109.455 22.1456 108.199 21.767 106.621 21.767C105.628 21.767 104.694 22 103.846 22.4077C103.058 22.8155 102.298 23.4563 101.802 24.3301L101.831 24.3592L103.759 26.1942C104.547 24.9417 105.424 24.5048 106.592 24.5048C107.235 24.5048 107.731 24.6796 108.14 25C108.549 25.3204 108.724 25.7573 108.724 26.2815V26.8641C107.965 26.631 107.235 26.5145 106.504 26.5145C105.015 26.5145 103.788 26.8641 102.883 27.5631C101.977 28.2621 101.51 29.2815 101.51 30.534C101.51 31.6408 101.889 32.5728 102.678 33.2427C103.467 33.8835 104.431 34.233 105.57 34.233C106.709 34.233 107.79 33.767 108.754 32.9806V33.9709H111.704V26.2815C111.733 24.8543 111.266 23.7184 110.36 22.932ZM105.015 29.398C105.365 29.165 105.833 29.0485 106.446 29.0485C107.176 29.0485 107.936 29.1942 108.724 29.4854V30.6505C108.082 31.2621 107.205 31.5534 106.125 31.5534C105.599 31.5534 105.19 31.4369 104.927 31.2039C104.664 30.9709 104.518 30.7087 104.518 30.3301C104.518 29.9514 104.664 29.631 105.015 29.398Z" fill="#0080FF"/>
<path d="M128.061 34.2039C123.242 34.2039 119.299 30.301 119.299 25.466C119.299 20.6311 123.213 16.7281 128.061 16.7281C132.881 16.7281 136.824 20.6311 136.824 25.466C136.824 30.301 132.881 34.2039 128.061 34.2039ZM128.061 19.8447C124.936 19.8447 122.395 22.3786 122.395 25.4951C122.395 28.6116 124.936 31.1456 128.061 31.1456C131.187 31.1456 133.728 28.6116 133.728 25.4951C133.728 22.3786 131.187 19.8447 128.061 19.8447Z" fill="#0080FF"/>
</svg>
