<svg fill="none" xmlns="http://www.w3.org/2000/svg" viewBox="0 0 354 85"><path d="M0 24.311v33.705c0 5.006 0 7.51.422 9.59a21.134 21.134 0 0 0 16.51 16.51c2.08.421 4.583.421 9.59.421h30.941c7.497 0 11.245 0 14.262-1.042a19.02 19.02 0 0 0 11.77-11.77c1.042-3.017 1.042-6.765 1.042-14.262V24.311c0-2.95 0-4.426-.147-5.666A21.134 21.134 0 0 0 65.892.147C64.652 0 63.177 0 60.226 0H24.153c-7.242 0-10.863 0-13.74 1.125a16.379 16.379 0 0 0-9.288 9.289C0 13.29 0 16.964 0 24.31Z" fill="#E1E1E1"/><rect x="2.113" y="2.113" width="73.97" height="73.97" rx="15.851" fill="#fff"/><path d="M33.929 65.82c5.537 0 9.122-2.414 10.952-5.902h.292v5.195h9.855v-25.27c0-8.927-7.562-12.683-15.904-12.683-8.976 0-14.879 4.293-16.318 11.123l9.61.78c.708-2.488 2.928-4.317 6.66-4.317 3.536 0 5.56 1.78 5.56 4.854v.146c0 2.415-2.56 2.732-9.073 3.366-7.415.683-14.074 3.171-14.074 11.537 0 7.416 5.293 11.172 12.44 11.172Zm2.975-7.17c-3.195 0-5.488-1.488-5.488-4.342 0-2.927 2.415-4.366 6.074-4.878 2.268-.317 5.976-.854 7.22-1.683v3.975c0 3.928-3.244 6.928-7.806 6.928Z" fill="#000"/><path d="M89.82 24.311v33.705c0 5.006 0 7.51.423 9.59a21.134 21.134 0 0 0 16.509 16.51c2.08.421 4.584.421 9.59.421h30.942c7.497 0 11.245 0 14.262-1.042a19.02 19.02 0 0 0 11.77-11.77c1.042-3.017 1.042-6.765 1.042-14.262V24.311c0-2.95 0-4.426-.147-5.666A21.135 21.135 0 0 0 155.713.147C154.473 0 152.997 0 150.047 0h-36.073c-7.242 0-10.863 0-13.74 1.125a16.38 16.38 0 0 0-9.288 9.289c-1.125 2.876-1.125 6.55-1.125 13.897Z" fill="#E1E1E1"/><rect x="91.934" y="2.113" width="73.97" height="73.97" rx="15.851" fill="#fff"/><path d="M129.536 65.845c9.269 0 15.513-4.512 16.977-11.464l-9.61-.634c-1.049 2.854-3.732 4.342-7.196 4.342-5.195 0-8.488-3.44-8.488-9.025v-.025h25.514v-2.853c0-12.733-7.708-19.026-17.611-19.026-11.025 0-18.172 7.83-18.172 19.391 0 11.88 7.049 19.294 18.586 19.294ZM121.219 42.6c.219-4.269 3.464-7.683 8.074-7.683 4.512 0 7.634 3.22 7.658 7.683h-15.732Zm3.927-19.782h7.342l7.439-11.098h-9.61l-5.171 11.098Z" fill="#000"/><path d="M179.642 24.311v33.705c0 5.006 0 7.51.422 9.59a21.134 21.134 0 0 0 16.509 16.51c2.08.421 4.584.421 9.59.421h30.942c7.497 0 11.245 0 14.262-1.042a19.02 19.02 0 0 0 11.77-11.77c1.042-3.017 1.042-6.765 1.042-14.262V24.311c0-2.95 0-4.426-.147-5.666A21.135 21.135 0 0 0 245.534.147C244.294 0 242.818 0 239.868 0h-36.073c-7.242 0-10.863 0-13.74 1.125a16.378 16.378 0 0 0-9.288 9.289c-1.125 2.876-1.125 6.55-1.125 13.897Z" fill="#E1E1E1"/><rect x="181.755" y="2.113" width="73.97" height="73.97" rx="15.851" fill="#fff"/><path d="M203.107 65.113h31.49V56.82h-17.855v-.268l17.221-22.148v-6.756h-30.221v8.293h17.708v.268l-18.343 22.709v6.195Z" fill="#000"/><path d="M269.463 24.311v33.705c0 5.006 0 7.51.422 9.59a21.134 21.134 0 0 0 16.509 16.51c2.081.421 4.584.421 9.59.421h30.942c7.497 0 11.245 0 14.262-1.042a19.02 19.02 0 0 0 11.77-11.77C354 68.708 354 64.96 354 57.463V24.311c0-2.95 0-4.426-.147-5.666A21.134 21.134 0 0 0 335.355.147C334.115 0 332.64 0 329.689 0h-36.073c-7.242 0-10.863 0-13.74 1.125a16.38 16.38 0 0 0-9.288 9.289c-1.125 2.876-1.125 6.55-1.125 13.897Z" fill="#E1E1E1"/><rect x="271.576" y="2.113" width="73.97" height="73.97" rx="15.851" fill="#fff"/><path d="M303.392 65.82c5.537 0 9.123-2.414 10.952-5.902h.293v5.195h9.854v-25.27c0-8.927-7.562-12.683-15.903-12.683-8.977 0-14.879 4.293-16.318 11.123l9.61.78c.707-2.488 2.927-4.317 6.659-4.317 3.537 0 5.561 1.78 5.561 4.854v.146c0 2.415-2.561 2.732-9.074 3.366-7.415.683-14.074 3.171-14.074 11.537 0 7.416 5.293 11.172 12.44 11.172Zm2.976-7.17c-3.195 0-5.488-1.488-5.488-4.342 0-2.927 2.415-4.366 6.073-4.878 2.269-.317 5.976-.854 7.22-1.683v3.975c0 3.928-3.244 6.928-7.805 6.928Z" fill="#000"/></svg>