<svg width="511" height="208" viewBox="0 0 511 208" fill="none" xmlns="http://www.w3.org/2000/svg">
<g clip-path="url(#clip0_1725_4745)">
<path d="M0 76.3039V124.903C0 132.121 0 135.731 0.608479 138.731C1.79895 144.598 4.69165 149.986 8.92539 154.219C13.1591 158.453 18.5463 161.346 24.4141 162.536C27.4133 163.143 31.0223 163.143 38.2419 163.143H82.8555C93.6654 163.143 99.0696 163.143 103.42 161.641C107.35 160.284 110.92 158.051 113.86 155.11C116.801 152.17 119.034 148.6 120.391 144.67C121.893 140.32 121.893 134.915 121.893 124.106V76.3039C121.893 72.0503 121.893 69.922 121.681 68.1341C120.876 61.3393 117.806 55.0135 112.968 50.1752C108.13 45.3369 101.804 42.2678 95.0092 41.462C93.2213 41.25 91.0945 41.25 86.8394 41.25H34.826C24.3839 41.25 19.1628 41.25 15.0144 42.8721C11.9787 44.0595 9.2216 45.8625 6.91675 48.1676C4.61191 50.4727 2.80921 53.23 1.62213 56.2659C0 60.4128 0 65.7103 0 76.3024V76.3039Z" fill="#E1E1E1"/>
<path d="M86.848 44.2969H25.9021C13.2794 44.2969 3.04663 54.5296 3.04663 67.1523V128.098C3.04663 140.721 13.2794 150.954 25.9021 150.954H86.848C99.4707 150.954 109.703 140.721 109.703 128.098V67.1523C109.703 54.5296 99.4707 44.2969 86.848 44.2969Z" fill="white"/>
<path d="M48.922 136.15C56.9058 136.15 62.075 132.669 64.7136 127.64H65.1347V135.13H79.3445V98.6938C79.3445 85.822 68.4409 80.4062 56.4126 80.4062C43.4702 80.4062 34.9587 86.5963 32.8838 96.4444L46.7404 97.5691C47.7613 93.9817 50.9623 91.3444 56.3434 91.3444C61.442 91.3444 64.3604 93.911 64.3604 98.3434V98.5539C64.3604 102.036 60.6691 102.493 51.2781 103.407C40.5864 104.392 30.9849 107.98 30.9849 120.042C30.9849 130.736 38.6168 136.15 48.922 136.15ZM53.2116 125.811C48.6048 125.811 45.2985 123.666 45.2985 119.551C45.2985 115.33 48.7807 113.255 54.0566 112.517C57.3268 112.06 62.6733 111.286 64.4671 110.091V115.822C64.4671 121.486 59.7896 125.811 53.2116 125.811Z" fill="black"/>
<path d="M129.511 76.3039V124.903C129.511 132.121 129.511 135.731 130.121 138.731C131.311 144.598 134.204 149.985 138.437 154.219C142.671 158.453 148.058 161.346 153.925 162.536C156.924 163.143 160.535 163.143 167.753 163.143H212.368C223.178 163.143 228.582 163.143 232.932 161.641C236.862 160.284 240.433 158.051 243.373 155.11C246.313 152.17 248.546 148.6 249.903 144.67C251.406 140.32 251.406 134.915 251.406 124.106V76.3039C251.406 72.0503 251.406 69.922 251.194 68.1341C250.388 61.3394 247.318 55.0137 242.48 50.1755C237.642 45.3373 231.316 42.268 224.522 41.462C222.734 41.25 220.605 41.25 216.352 41.25H164.338C153.896 41.25 148.675 41.25 144.527 42.8721C141.491 44.0596 138.734 45.8626 136.429 48.1677C134.124 50.4728 132.322 53.23 131.135 56.2659C129.512 60.4128 129.511 65.7103 129.511 76.3039Z" fill="#E1E1E1"/>
<path d="M216.36 44.2969H155.415C142.792 44.2969 132.559 54.5296 132.559 67.1523V128.098C132.559 140.721 142.792 150.954 155.415 150.954H216.36C228.983 150.954 239.216 140.721 239.216 128.098V67.1523C239.216 54.5296 228.983 44.2969 216.36 44.2969Z" fill="white"/>
<path d="M186.777 136.191C200.142 136.191 209.145 129.685 211.256 119.661L197.399 118.747C195.887 122.862 192.018 125.008 187.024 125.008C179.533 125.008 174.785 120.047 174.785 111.994V111.958H211.573V107.845C211.573 89.4851 200.459 80.4113 186.18 80.4113C170.283 80.4113 159.978 91.7013 159.978 108.371C159.978 125.501 170.142 136.191 186.777 136.191ZM174.785 102.674C175.101 96.5186 179.78 91.596 186.427 91.596C192.932 91.596 197.434 96.2389 197.469 102.674H174.785ZM180.447 74.1506H191.034L201.76 58.1484H187.903L180.447 74.1506Z" fill="black"/>
<path d="M259.024 76.3039V124.903C259.024 132.121 259.024 135.731 259.633 138.731C260.823 144.598 263.716 149.985 267.949 154.219C272.183 158.453 277.57 161.346 283.437 162.536C286.436 163.143 290.047 163.143 297.265 163.143H341.88C352.69 163.143 358.094 163.143 362.444 161.641C366.374 160.284 369.945 158.051 372.885 155.11C375.825 152.17 378.058 148.6 379.415 144.67C380.918 140.32 380.918 134.915 380.918 124.106V76.3039C380.918 72.0503 380.918 69.922 380.706 68.1341C379.9 61.3394 376.83 55.0137 371.992 50.1755C367.154 45.3373 360.828 42.268 354.034 41.462C352.246 41.25 350.117 41.25 345.864 41.25H293.85C283.408 41.25 278.187 41.25 274.039 42.8721C271.003 44.0595 268.246 45.8624 265.941 48.1675C263.636 50.4726 261.834 53.2299 260.647 56.2659C259.024 60.4128 259.024 65.7103 259.024 76.3039Z" fill="#E1E1E1"/>
<path d="M345.873 44.2969H284.927C272.304 44.2969 262.071 54.5296 262.071 67.1523V128.098C262.071 140.721 272.304 150.954 284.927 150.954H345.873C358.495 150.954 368.728 140.721 368.728 128.098V67.1523C368.728 54.5296 358.495 44.2969 345.873 44.2969Z" fill="white"/>
<path d="M292.859 135.13H338.264V123.172H312.519V122.786L337.35 90.8508V81.1094H293.774V93.067H319.307V93.4534L292.859 126.197V135.13Z" fill="black"/>
<path d="M388.537 76.3039V124.903C388.537 132.121 388.537 135.731 389.145 138.731C390.336 144.598 393.228 149.985 397.462 154.219C401.695 158.453 407.082 161.346 412.95 162.536C415.95 163.143 419.559 163.143 426.777 163.143H471.392C482.202 163.143 487.606 163.143 491.957 161.641C495.887 160.284 499.457 158.051 502.397 155.11C505.337 152.17 507.571 148.6 508.928 144.67C510.43 140.32 510.43 134.915 510.43 124.106V76.3039C510.43 72.0503 510.43 69.922 510.218 68.1341C509.412 61.3393 506.343 55.0135 501.505 50.1752C496.667 45.3369 490.341 42.2678 483.546 41.462C481.758 41.25 479.631 41.25 475.376 41.25H423.363C412.921 41.25 407.7 41.25 403.551 42.8721C400.516 44.0596 397.759 45.8626 395.454 48.1677C393.149 50.4728 391.346 53.23 390.159 56.2659C388.537 60.4128 388.537 65.7103 388.537 76.3039Z" fill="#E1E1E1"/>
<path d="M475.385 44.2969H414.439C401.816 44.2969 391.583 54.5296 391.583 67.1523V128.098C391.583 140.721 401.816 150.954 414.439 150.954H475.385C488.008 150.954 498.24 140.721 498.24 128.098V67.1523C498.24 54.5296 488.008 44.2969 475.385 44.2969Z" fill="white"/>
<path d="M437.459 136.15C445.443 136.15 450.613 132.669 453.25 127.64H453.673V135.13H467.881V98.6938C467.881 85.822 456.978 80.4062 444.951 80.4062C432.007 80.4062 423.497 86.5963 421.422 96.4444L435.279 97.5691C436.298 93.9817 439.499 91.3444 444.88 91.3444C449.98 91.3444 452.899 93.911 452.899 98.3434V98.5539C452.899 102.036 449.206 102.493 439.815 103.407C429.123 104.392 419.522 107.98 419.522 120.042C419.522 130.736 427.154 136.15 437.459 136.15ZM441.75 125.811C437.143 125.811 433.837 123.666 433.837 119.551C433.837 115.33 437.319 113.255 442.593 112.517C445.865 112.06 451.21 111.286 453.004 110.091V115.822C453.004 121.486 448.326 125.811 441.75 125.811Z" fill="black"/>
</g>
<defs>
<clipPath id="clip0_1725_4745">
<rect width="510.278" height="208" fill="white"/>
</clipPath>
</defs>
</svg>
