<svg width="353" height="208" viewBox="0 0 353 208" fill="none" xmlns="http://www.w3.org/2000/svg">
<g clip-path="url(#clip0_1725_4745)">
<path d="M0 83.1373V116.721C0 121.709 0 124.204 0.420477 126.276C1.24313 130.331 3.24207 134.054 6.16771 136.979C9.09335 139.905 12.816 141.904 16.8709 142.727C18.9434 143.146 21.4374 143.146 26.4263 143.146H57.2556C64.7256 143.146 68.46 143.146 71.4662 142.108C74.1821 141.17 76.6492 139.627 78.6809 137.595C80.7127 135.563 82.2558 133.096 83.1937 130.38C84.2319 127.374 84.2319 123.64 84.2319 116.17V83.1373C84.2319 80.198 84.2319 78.7273 84.0855 77.4918C83.5286 72.7964 81.4077 68.4251 78.0643 65.0817C74.7209 61.7383 70.3496 59.6174 65.6542 59.0605C64.4187 58.9141 62.949 58.9141 60.0087 58.9141H24.0658C16.85 58.9141 13.242 58.9141 10.3754 60.035C8.27762 60.8555 6.3724 62.1015 4.77968 63.6943C3.18697 65.2872 1.94125 67.1926 1.12094 69.2905C0 72.1561 0 75.8168 0 83.1363V83.1373Z" fill="#E1E1E1"/>
<path d="M60.0145 61.0156H17.899C9.17635 61.0156 2.10522 68.0867 2.10522 76.8094V118.925C2.10522 127.648 9.17635 134.719 17.899 134.719H60.0145C68.7372 134.719 75.8083 127.648 75.8083 118.925V76.8094C75.8083 68.0867 68.7372 61.0156 60.0145 61.0156Z" fill="white"/>
<path d="M33.8065 124.489C39.3235 124.489 42.8956 122.084 44.719 118.609H45.0099V123.785H54.8293V98.606C54.8293 89.7112 47.2946 85.9688 38.9827 85.9688C30.0391 85.9688 24.1574 90.2463 22.7236 97.0516L32.2989 97.8288C33.0044 95.3498 35.2164 93.5274 38.9349 93.5274C42.4582 93.5274 44.4748 95.3009 44.4748 98.3639V98.5093C44.4748 100.916 41.9241 101.231 35.4346 101.863C28.0463 102.544 21.4114 105.023 21.4114 113.359C21.4114 120.748 26.6853 124.489 33.8065 124.489ZM36.7707 117.345C33.5873 117.345 31.3026 115.862 31.3026 113.019C31.3026 110.102 33.7088 108.669 37.3546 108.158C39.6145 107.843 43.3091 107.307 44.5486 106.481V110.442C44.5486 114.356 41.3163 117.345 36.7707 117.345Z" fill="black"/>
<path d="M89.4958 83.1373V116.721C89.4958 121.709 89.4958 124.204 89.9173 126.276C90.7399 130.331 92.7387 134.053 95.6642 136.979C98.5896 139.905 102.312 141.904 106.367 142.727C108.439 143.146 110.934 143.146 115.922 143.146H146.752C154.222 143.146 157.957 143.146 160.963 142.108C163.679 141.17 166.146 139.627 168.178 137.595C170.21 135.563 171.753 133.096 172.691 130.38C173.729 127.374 173.729 123.64 173.729 116.17V83.1373C173.729 80.198 173.729 78.7273 173.582 77.4918C173.025 72.7965 170.904 68.4252 167.561 65.0819C164.218 61.7385 159.846 59.6175 155.151 59.0605C153.916 58.9141 152.445 58.9141 149.506 58.9141H113.563C106.347 58.9141 102.739 58.9141 99.8723 60.035C97.7745 60.8556 95.8693 62.1015 94.2766 63.6944C92.6839 65.2873 91.4381 67.1926 90.6178 69.2905C89.4968 72.1561 89.4958 75.8168 89.4958 83.1373Z" fill="#E1E1E1"/>
<path d="M149.512 61.0156H107.396C98.6734 61.0156 91.6023 68.0867 91.6023 76.8094V118.925C91.6023 127.648 98.6734 134.719 107.396 134.719H149.512C158.234 134.719 165.305 127.648 165.305 118.925V76.8094C165.305 68.0867 158.234 61.0156 149.512 61.0156Z" fill="white"/>
<path d="M129.068 124.516C138.304 124.516 144.526 120.02 145.984 113.093L136.409 112.461C135.364 115.305 132.69 116.788 129.239 116.788C124.063 116.788 120.782 113.36 120.782 107.795V107.77H146.203V104.928C146.203 92.2405 138.523 85.9702 128.656 85.9702C117.671 85.9702 110.55 93.772 110.55 105.291C110.55 117.128 117.573 124.516 129.068 124.516ZM120.782 101.354C121 97.1009 124.233 93.6992 128.826 93.6992C133.322 93.6992 136.433 96.9076 136.457 101.354H120.782ZM124.694 81.6439H132.01L139.422 70.5859H129.847L124.694 81.6439Z" fill="black"/>
<path d="M178.994 83.1373V116.721C178.994 121.709 178.994 124.204 179.414 126.276C180.237 130.331 182.236 134.053 185.161 136.979C188.086 139.905 191.809 141.904 195.864 142.727C197.936 143.146 200.431 143.146 205.419 143.146H236.249C243.719 143.146 247.454 143.146 250.46 142.108C253.176 141.17 255.643 139.627 257.675 137.595C259.706 135.563 261.249 133.096 262.187 130.38C263.226 127.374 263.226 123.64 263.226 116.17V83.1373C263.226 80.198 263.226 78.7273 263.079 77.4918C262.522 72.7965 260.401 68.4252 257.058 65.0819C253.714 61.7385 249.343 59.6175 244.648 59.0605C243.412 58.9141 241.942 58.9141 239.002 58.9141H203.059C195.844 58.9141 192.236 58.9141 189.369 60.035C187.271 60.8555 185.366 62.1014 183.773 63.6943C182.181 65.2872 180.935 67.1926 180.115 69.2905C178.994 72.1561 178.994 75.8168 178.994 83.1373Z" fill="#E1E1E1"/>
<path d="M239.008 61.0156H196.893C188.17 61.0156 181.099 68.0867 181.099 76.8094V118.925C181.099 127.648 188.17 134.719 196.893 134.719H239.008C247.731 134.719 254.802 127.648 254.802 118.925V76.8094C254.802 68.0867 247.731 61.0156 239.008 61.0156Z" fill="white"/>
<path d="M202.374 123.783H233.75V115.52H215.96V115.253L233.119 93.1847V86.4531H203.007V94.7162H220.651V94.9832L202.374 117.61V123.783Z" fill="black"/>
<path d="M268.491 83.1373V116.721C268.491 121.709 268.491 124.204 268.911 126.276C269.734 130.331 271.733 134.053 274.658 136.979C277.583 139.905 281.306 141.904 285.361 142.727C287.434 143.146 289.928 143.146 294.916 143.146H325.746C333.216 143.146 336.951 143.146 339.957 142.108C342.673 141.17 345.14 139.627 347.172 137.595C349.203 135.563 350.747 133.096 351.684 130.38C352.723 127.374 352.723 123.64 352.723 116.17V83.1373C352.723 80.198 352.723 78.7273 352.576 77.4918C352.019 72.7964 349.898 68.4251 346.555 65.0817C343.212 61.7383 338.84 59.6174 334.145 59.0605C332.909 58.9141 331.44 58.9141 328.499 58.9141H292.557C285.341 58.9141 281.733 58.9141 278.866 60.035C276.768 60.8556 274.863 62.1015 273.27 63.6944C271.678 65.2873 270.432 67.1926 269.612 69.2905C268.491 72.1561 268.491 75.8168 268.491 83.1373Z" fill="#E1E1E1"/>
<path d="M328.505 61.0156H286.39C277.667 61.0156 270.596 68.0867 270.596 76.8094V118.925C270.596 127.648 277.667 134.719 286.39 134.719H328.505C337.228 134.719 344.299 127.648 344.299 118.925V76.8094C344.299 68.0867 337.228 61.0156 328.505 61.0156Z" fill="white"/>
<path d="M302.297 124.489C307.814 124.489 311.387 122.084 313.21 118.609H313.502V123.785H323.32V98.606C323.32 89.7112 315.785 85.9688 307.474 85.9688C298.53 85.9688 292.649 90.2463 291.215 97.0516L300.791 97.8288C301.495 95.3498 303.707 93.5274 307.426 93.5274C310.95 93.5274 312.967 95.3009 312.967 98.3639V98.5093C312.967 100.916 310.415 101.231 303.925 101.863C296.537 102.544 289.902 105.023 289.902 113.359C289.902 120.748 295.176 124.489 302.297 124.489ZM305.262 117.345C302.079 117.345 299.794 115.862 299.794 113.019C299.794 110.102 302.201 108.669 305.845 108.158C308.106 107.843 311.8 107.307 313.039 106.481V110.442C313.039 114.356 309.807 117.345 305.262 117.345Z" fill="black"/>
</g>
<defs>
<clipPath id="clip0_1725_4745">
<rect width="352.425" height="208" fill="white"/>
</clipPath>
</defs>
</svg>
