<svg xmlns="http://www.w3.org/2000/svg" width="101" height="121" fill="none" viewBox="0 0 101 121">
  <defs/>
  <path fill="#1A3378" fill-rule="evenodd" d="M.85 76v10.24h3.86v-3.12h6.34a2.93 2.93 0 002.64-1.52c.15-.3.22-.62.22-.95v-2.16a2.23 2.23 0 00-.83-1.73 2.9 2.9 0 00-2.03-.75L.85 76zm8.76 5.4h-4.9v-3.55h5.31v3.52l-.41.03zm29.11 4.89h3.16l-3-3.13.78-.12c.7-.05 1.35-.35 1.84-.85.35-.42.54-.95.53-1.5v-2.16a2.33 2.33 0 00-.75-1.76 2.5 2.5 0 00-1.82-.74h-9.7v10.25h3.49v-3.16h2.73l2.79 3.13-.05.04zm-5.39-4.89v-3.55h5.24v3.52h-5.26l.02.03zm-5.22-3.42v-1.94H17.87a2.48 2.48 0 00-2.5 2.5v5.24a2.37 2.37 0 00.77 1.76 2.4 2.4 0 001.76.74h10.25v-1.96H18.8V81.8l7.12.06v-1.54l-7.2-.05v-2.3h9.38zm28.87 0v-1.94H46.77a2.48 2.48 0 00-2.5 2.5v7.75h3.37v-3.62l7.13.05v-1.5h-7.13v-3.24h9.34zm14.48 0v-1.94H61.2a2.48 2.48 0 00-2.49 2.5v5.24a2.37 2.37 0 00.78 1.76 2.4 2.4 0 001.76.74H71.5v-1.96h-9.34V81.8l7.13.06v-1.54l-7.13-.05v-2.3h9.3zm14.51 0V76H75.72a2.48 2.48 0 00-2.5 2.5v5.24a2.37 2.37 0 00.74 1.77 2.43 2.43 0 001.76.73h10.2V84.3H76.6v-6.31h9.38zm14.4-1.94H87.74v1.94h4.31v8.3h3.83v-8.3h4.41l.08-1.94zM27.58 110.22H19.9a2.45 2.45 0 00-1.78.73 2.37 2.37 0 00-.74 1.78v5.23a2.38 2.38 0 00.74 1.77 2.45 2.45 0 001.78.72h7.68a2.5 2.5 0 002.55-2.5v-5.22a2.37 2.37 0 00-.73-1.78 2.49 2.49 0 00-1.82-.73zm-.83 8.3h-6v-6.36h6v6.37zm6.94.14v1.8H43.8c.72.02 1.42-.25 1.95-.73a2.3 2.3 0 00.8-1.76v-1.3a1.76 1.76 0 00-.74-1.52 3.44 3.44 0 00-2.08-.72H37.4v-2.4h9.16v-1.82H36.4a2.72 2.72 0 00-2.5 1.53c-.13.3-.2.63-.2.95v.75a2.16 2.16 0 00.74 1.69 3 3 0 002.02.9h6.36v2.66h-9.13v-.03zm27.96-8.44H49.03v1.94h4.38v8.3h3.83v-8.3h4.4v-1.94zm5.88 0h-3.51v10.24h3.5v-10.24h.01zm13.08 10.24h3.4v-7.73a2.37 2.37 0 00-.73-1.78 2.4 2.4 0 00-1.76-.73H71.26v10.24h3.35v-8.3h6.04v8.3h-.04zm19.76-8.34v-1.91H90.2a2.39 2.39 0 00-1.78.73 2.45 2.45 0 00-.73 1.79v5.23a2.47 2.47 0 00.74 1.8 2.36 2.36 0 001.77.75h7.62a2.45 2.45 0 001.8-.75c.41-.36.67-.85.75-1.38v-2.73h-3.43v2.82H91.1v-6.35h9.27zm-90.26-1.9v4.5H4.4v-4.5H.91v10.24h3.5v-3.95h5.7v3.95h3.58v-10.24H10.1zM6.07 105.33h2.57v-1.98h2.47a2.43 2.43 0 001.8-.73 2.38 2.38 0 00.74-1.77v-5.24a2.38 2.38 0 00-.74-1.77 2.48 2.48 0 00-1.8-.74H3.42a2.43 2.43 0 00-1.78.73 2.37 2.37 0 00-.73 1.77v5.24a2.37 2.37 0 00.73 1.77 2.45 2.45 0 001.78.73h2.65v2zm2.57-5.9H6.07v1.96h-1.8v-6.34h6v6.37H8.64v-2zm18.13-6.33v8.3h-6.04v-8.3h-3.31V100.8a2.41 2.41 0 00.74 1.8 2.48 2.48 0 001.82.75h7.74a2.42 2.42 0 001.77-.73 2.42 2.42 0 00.74-1.77V93.1h-3.46zm16.37 10.24h3.34V95.6a2.38 2.38 0 00-.74-1.77 2.4 2.4 0 00-1.76-.72h-7.64a2.47 2.47 0 00-2.51 2.5v7.73h3.4v-3.53h5.92v3.53-.01zm0-5.07h-5.93v-3.24h5.93v3.24zm10.58-5.19h-3.46v7.7a2.54 2.54 0 00.74 1.81 2.36 2.36 0 001.77.75h8.42v-2.01h-7.54V93.1l.07-.02zm13.8 0h-3.5v10.23h3.5V93.08zm16.37 0H71.28v1.97h4.37v8.3h3.83v-8.3h4.41v-1.97zm12.82 0v4.52h-5.45v-4.5h-3.64v3.8a2.32 2.32 0 00.77 1.75 2.63 2.63 0 001.9.73h1.9v3.98h3.7V99.4h1.93a2.55 2.55 0 002.55-2.16V93.1l-3.66-.02z" clip-rule="evenodd"/>
  <rect width="59.88" height="60" x="20.67" y="1" fill="#1A3378" rx="10"/>
  <path fill="#fff" fill-rule="evenodd" d="M64.88 9.3h5.6a1.43 1.43 0 012.46-.61c.28.28.43.66.43 1.06a1.54 1.54 0 01-1.48 1.48 1.42 1.42 0 01-1.41-1.08h-5.6v-.86zm-.2 42.38h5.8a1.42 1.42 0 011.42-1.08 1.49 1.49 0 01.97 2.5c-.25.27-.6.44-.97.47a1.42 1.42 0 01-1.41-1.08h-5.81v-.9.1zm.2-33.5h5.6a1.42 1.42 0 011.42-1.07 1.48 1.48 0 011.05 2.52c-.28.28-.66.44-1.05.44a1.41 1.41 0 01-1.41-1.08h-5.6v-.8zM36.26 51.68H30.7a1.4 1.4 0 00-1.4-.98 1.49 1.49 0 00-.85 2.4c.22.26.52.45.85.52a1.41 1.41 0 001.41-1.08h5.57v-.9l-.02.04zm.1-42.39H30.7a1.42 1.42 0 00-1.4-1.03 1.54 1.54 0 00-1.49 1.48 1.55 1.55 0 001.49 1.49 1.41 1.41 0 001.41-1.08h5.66v-.86zm0 8.93H30.7a1.4 1.4 0 00-1.4-1.02 1.48 1.48 0 00-1.05 2.53c.28.28.66.43 1.05.43a1.4 1.4 0 001.41-1.08h5.66v-.86zM31.84 37.46v6.37a2.56 2.56 0 01-4.36 1.8 2.56 2.56 0 01-.75-1.8V34.9a2.57 2.57 0 012.57-2.57h14.75v-2.72H27.56a2.55 2.55 0 01-1.8-4.37 2.55 2.55 0 011.8-.75H46.6a2.56 2.56 0 012.56 2.56v7.85a2.57 2.57 0 01-2.56 2.56H31.84zm-4.3-11.52a1.08 1.08 0 00-1.07 1.3 1.08 1.08 0 001.96.39 1.08 1.08 0 00-.9-1.69zm1.76 16.78a1.08 1.08 0 00-.76 1.85 1.08 1.08 0 101.52-1.53c-.2-.2-.48-.32-.76-.32z" clip-rule="evenodd"/>
  <path fill="#70DB70" fill-rule="evenodd" d="M38.39 40.2h24.4a3.1 3.1 0 013.08 3.09 3.1 3.1 0 01-3.08 3.09h-24.4a3.1 3.1 0 01-3.09-3.1 3.1 3.1 0 013.09-3.08zm24.4 1.98a1.08 1.08 0 00-1.06 1.3 1.08 1.08 0 001.96.39 1.08 1.08 0 00-.9-1.69zm-24.54 0a1.08 1.08 0 00-1.06 1.3 1.08 1.08 0 001.96.39 1.08 1.08 0 00-.9-1.69zm12.34 0a1.08 1.08 0 00-1.05 1.3 1.08 1.08 0 001.95.39 1.08 1.08 0 00-.9-1.69z" clip-rule="evenodd"/>
  <path fill="#47CFED" fill-rule="evenodd" d="M38.39 15.57h24.4a3.1 3.1 0 013.08 3.1 3.1 3.1 0 01-3.08 3.08h-24.4a3.1 3.1 0 01-3.09-3.09 3.1 3.1 0 013.09-3.09zm24.4 1.99a1.08 1.08 0 00-.76 1.84 1.08 1.08 0 101.52-1.52c-.2-.2-.47-.32-.76-.32zm-24.54 0a1.08 1.08 0 00-.76 1.84A1.08 1.08 0 1039 17.88c-.2-.2-.48-.32-.76-.32zm12.34 0a1.08 1.08 0 00-.76 1.84 1.08 1.08 0 101.53-1.52c-.2-.2-.48-.32-.77-.32z" clip-rule="evenodd"/>
  <path fill="#DD97F7" fill-rule="evenodd" d="M38.39 6.65h24.4a3.1 3.1 0 013.08 3.09 3.1 3.1 0 01-3.08 3.14h-24.4a3.09 3.09 0 01-3.09-3.13 3.1 3.1 0 013.09-3.1zm24.4 2a1.08 1.08 0 00-1.06 1.29 1.08 1.08 0 001.96.39 1.08 1.08 0 00-.9-1.68zm-24.54 0a1.08 1.08 0 00-.76 1.84A1.08 1.08 0 1039 8.96c-.2-.2-.48-.31-.76-.31zm12.34 0a1.08 1.08 0 00-.76 1.84 1.08 1.08 0 101.53-1.53c-.2-.2-.48-.31-.77-.31z" clip-rule="evenodd"/>
  <path fill="#FFDF52" fill-rule="evenodd" d="M38.39 49.11h24.4a3.1 3.1 0 013.08 3.1 3.1 3.1 0 01-3.08 3.1h-24.4a3.1 3.1 0 01-3.09-3.1 3.1 3.1 0 013.09-3.1zm24.4 2a1.08 1.08 0 00-.76 1.84 1.08 1.08 0 101.52-1.52c-.2-.2-.47-.32-.76-.32zm-24.54 0a1.08 1.08 0 00-.76 1.84A1.08 1.08 0 1039 51.43c-.2-.2-.48-.32-.76-.32zm12.34 0a1.08 1.08 0 00-.76 1.84 1.08 1.08 0 101.53-1.52c-.2-.2-.48-.32-.77-.32z" clip-rule="evenodd"/>
  <path fill="#fff" fill-rule="evenodd" d="M54.57 24.53h19.05a2.55 2.55 0 011.8 4.37c-.48.48-1.13.75-1.8.75h-16.5v2.73H71.9a2.56 2.56 0 012.56 2.56v8.89a2.56 2.56 0 01-4.37 1.8 2.56 2.56 0 01-.75-1.8v-6.34H54.57a2.55 2.55 0 01-2.55-2.55V27.1a2.57 2.57 0 012.55-2.56zm17.32 18.2a1.08 1.08 0 00-1.06 1.29 1.08 1.08 0 001.96.39 1.08 1.08 0 00-.9-1.69zm1.73-16.74a1.08 1.08 0 00-1.06 1.29 1.08 1.08 0 001.95.39 1.08 1.08 0 00-.9-1.68z" clip-rule="evenodd"/>
</svg>
