<svg width="986" height="208" viewBox="0 0 986 208" fill="none" xmlns="http://www.w3.org/2000/svg">
<path d="M26.7629 151.76C19.3978 151.76 13.0848 150.358 9.22685 147.201C2.91391 142.642 0.458862 136.679 0.458862 127.561V59.5211H16.2413V80.5644H39.038V95.9962H16.2413V124.755C16.2413 130.367 17.2934 133.172 20.0992 134.926C21.8528 135.978 25.0093 136.679 29.9194 136.679C33.0758 136.679 39.038 136.329 39.038 136.329V150.709C39.038 150.709 33.4265 151.76 26.7629 151.76ZM458.148 137.381C451.134 147.552 440.963 152.813 427.285 152.813C416.062 152.813 406.592 149.305 399.579 142.291C392.564 135.277 389.056 126.508 389.056 115.987C389.056 105.466 392.564 96.6974 399.579 89.683C406.592 82.6687 415.361 79.1615 426.233 79.1615C436.403 79.1615 444.821 82.6686 451.484 90.0336C458.148 97.0481 461.305 106.167 461.305 116.338C461.305 120.196 460.604 123.001 460.604 123.001H405.891C406.943 127.912 409.398 131.419 413.256 134.224C417.114 137.03 422.024 138.433 427.636 138.433C435.352 138.433 441.314 135.628 445.172 130.015L458.148 137.381ZM405.891 109.323H445.172C444.119 104.063 442.016 100.204 438.508 97.3987C435.001 94.5931 430.792 93.1904 425.882 93.1904C420.621 93.1904 416.062 94.5931 412.555 97.7494C409.398 100.906 406.943 104.764 405.891 109.323ZM274.722 137.381C267.707 147.552 257.536 152.813 243.859 152.813C232.635 152.813 223.166 149.305 216.152 142.291C209.137 135.277 205.63 126.508 205.63 115.987C205.63 105.466 209.137 96.6974 216.152 89.683C223.166 82.6687 231.934 79.1615 242.806 79.1615C252.977 79.1615 261.394 82.6686 268.058 90.0336C274.722 97.0481 277.879 106.167 277.879 116.338C277.879 120.196 277.177 123.001 277.177 123.001H222.464C223.517 127.912 225.972 131.419 229.829 134.224C233.688 137.03 238.598 138.433 244.209 138.433C251.925 138.433 257.887 135.628 261.745 130.015L274.722 137.381ZM222.464 109.323H261.745C260.693 104.063 258.589 100.204 255.081 97.3987C251.574 94.5931 247.366 93.1904 242.455 93.1904C237.195 93.1904 232.635 94.5931 229.128 97.7494C225.621 100.906 223.517 104.764 222.464 109.323ZM74.1101 64.7819C74.1101 59.5211 69.9013 55.3125 64.6408 55.3125C59.3797 55.3125 55.1711 59.5211 55.1711 64.7819C55.1711 70.0427 59.3797 74.2514 64.6408 74.2514C69.9013 74.2514 74.1101 70.0427 74.1101 64.7819ZM365.208 151.059L383.445 80.9151H367.312L356.089 130.367H355.037L342.06 80.9151H325.576L312.249 130.367H311.196L299.974 80.9151H283.84L302.078 151.059H320.666L333.292 101.608H334.344L346.97 151.059H365.208ZM193.706 151.059V107.57C193.706 98.8018 191.251 91.7873 186.341 86.8773C181.43 81.6165 175.117 79.1615 167.051 79.1615C158.634 79.1615 150.567 83.7208 146.358 91.0861H145.306C141.799 83.7208 134.434 79.1615 126.017 79.1615C117.95 79.1615 110.936 83.0194 107.078 89.3323H106.377V80.9151H90.2428V151.059H106.377V111.778C106.377 106.167 107.779 101.608 110.936 98.4512C113.742 95.6455 117.249 93.8918 121.458 93.8918C125.315 93.8918 128.472 95.2943 130.576 97.7494C132.68 100.204 133.733 104.063 133.733 108.622V151.059H149.865V111.778C149.865 106.167 151.268 101.608 154.074 98.4512C156.529 95.6455 160.387 94.2424 164.596 94.2424C168.454 94.2424 171.61 95.6455 174.065 98.1005C176.52 100.556 177.572 104.413 177.572 108.973V151.41H193.706V151.059ZM72.7072 151.059V80.9151H56.5742V151.059H72.7072ZM538.814 141.94C545.477 134.926 548.983 126.158 548.983 115.636C548.983 105.466 545.477 96.3468 538.814 89.3323C532.151 82.3179 523.733 78.8108 514.615 78.8108C505.495 78.8108 496.377 83.0194 490.766 89.3323H489.713V59.5211H473.58V150.709H489.713V141.94H490.766C496.377 148.604 505.846 152.813 514.965 152.813C524.433 152.813 532.151 148.955 538.814 141.94ZM526.889 100.204C531.096 104.413 532.852 109.323 532.852 115.636C532.852 121.949 530.745 126.859 526.889 131.068C522.683 135.277 517.77 137.03 511.458 137.03C505.145 137.03 500.235 134.926 496.026 131.068C491.818 126.859 490.064 121.949 490.064 115.636C490.064 109.323 492.168 104.413 496.026 100.204C500.235 95.9962 505.145 94.2424 511.458 94.2424C517.77 94.2424 522.683 96.3468 526.889 100.204Z" fill="black"/>
<path d="M617.729 115.638L580.547 78.8125L570.028 89.685L595.98 115.638L570.028 141.942L580.547 152.814L617.729 115.638Z" fill="#454CEE"/>
<path d="M695.566 128.088C691.61 134.062 685.733 138.136 677.686 138.136C663.346 138.136 654.07 128.63 654.07 115.867C654.07 102.561 663.212 93.463 676.047 93.463C684.1 93.463 689.426 96.3147 694.202 102.696L705.808 95.0924C701.161 85.7236 689.971 79.0703 675.362 79.0703C652.975 79.0703 637.957 94.9565 637.957 115.867C637.957 138.136 653.385 152.529 676.182 152.529C688.467 152.529 700.752 146.555 706.622 135.148L695.566 128.088Z" fill="#454CEE"/>
<path d="M919.612 141.734C912.951 134.769 909.445 126.064 909.445 115.618C909.445 105.52 912.951 96.4673 919.612 89.5034C926.278 82.5393 934.694 79.0573 943.813 79.0573C952.932 79.0573 962.05 83.2357 967.663 89.5034H968.717V59.9062H984.853V150.438H968.717V141.734H967.663C962.05 148.349 952.581 152.528 943.462 152.528C933.992 152.528 926.278 148.697 919.612 141.734ZM931.54 100.298C927.332 104.476 925.576 109.351 925.576 115.618C925.576 121.886 927.683 126.761 931.54 130.939C935.748 135.118 940.658 136.858 946.968 136.858C953.283 136.858 958.193 134.769 962.402 130.939C966.616 126.761 968.366 121.886 968.366 115.618C968.366 109.351 966.264 104.476 962.402 100.298C958.193 96.1192 953.283 94.378 946.968 94.378C940.658 94.378 935.748 96.4673 931.54 100.298Z" fill="#454CEE"/>
<path d="M717.801 150.931H733.931V59.9062H717.801V150.931Z" fill="#454CEE"/>
<path d="M897.775 150.856H881.674V143.478C879.42 146.219 876.576 148.415 873.351 149.9C870.126 151.384 866.609 152.121 863.056 152.054C843.736 152.054 833.259 142.265 833.259 120.802V80.6875H849.366V119.317C849.366 129.521 852.451 137.842 864.543 137.842C872.526 137.842 877.782 133.546 881.674 125.768V80.6875H897.775V150.856Z" fill="#454CEE"/>
<path d="M746.714 115.867C746.714 137.049 762.013 152.529 783.376 152.529C805.002 152.529 820.172 137.049 820.172 115.867C820.172 94.5495 805.002 79.0703 783.376 79.0703C761.615 79.0703 746.714 94.5495 746.714 115.867ZM762.27 115.867C762.27 102.018 771.377 93.463 783.376 93.463C795.245 93.463 804.61 102.153 804.61 115.867C804.61 129.445 795.907 138.136 783.376 138.136C770.845 138.136 762.27 128.63 762.27 115.867Z" fill="#454CEE"/>
</svg>
