<svg width="2084" height="208" viewBox="0 0 2084 208" fill="none" xmlns="http://www.w3.org/2000/svg">
<g clip-path="url(#clip0_1720_4737)">
<path d="M56.6138 204.985C41.0337 204.985 27.6794 202.019 19.5183 195.341C6.16404 185.696 0.970673 173.083 0.970673 153.794V9.86384H34.3565V54.3784H82.5805V87.0225H34.3565V147.858C34.3565 159.729 36.5823 165.665 42.5176 169.374C46.227 171.6 52.9042 173.083 63.2909 173.083C69.9681 173.083 82.5805 172.342 82.5805 172.342V202.761C82.5805 202.761 70.71 204.985 56.6138 204.985ZM969.16 174.567C954.321 196.082 932.807 207.211 903.873 207.211C880.131 207.211 860.099 199.792 845.262 184.953C830.424 170.117 823.004 151.568 823.004 129.312C823.004 107.054 830.424 88.506 845.262 73.6677C860.099 58.8297 878.648 51.4107 901.647 51.4107C923.161 51.4107 940.967 58.8297 955.063 74.4094C969.16 89.2477 975.837 108.538 975.837 130.053C975.837 138.215 974.354 144.149 974.354 144.149H858.615C860.841 154.537 866.034 161.955 874.196 167.89C882.357 173.825 892.744 176.793 904.614 176.793C920.936 176.793 933.549 170.859 941.71 158.986L969.16 174.567ZM858.615 115.215H941.71C939.483 104.086 935.033 95.9247 927.613 89.9895C920.195 84.0544 911.291 81.0873 900.905 81.0873C889.776 81.0873 880.131 84.0544 872.712 90.7312C866.034 97.4093 860.841 105.57 858.615 115.215ZM581.142 174.567C566.304 196.082 544.788 207.211 515.855 207.211C492.113 207.211 472.082 199.792 457.245 184.953C442.406 170.117 434.987 151.568 434.987 129.312C434.987 107.054 442.406 88.506 457.245 73.6677C472.082 58.8297 490.63 51.4107 513.629 51.4107C535.144 51.4107 552.949 58.8297 567.046 74.4094C581.142 89.2477 587.82 108.538 587.82 130.053C587.82 138.215 586.336 144.149 586.336 144.149H470.598C472.824 154.537 478.017 161.955 486.178 167.89C494.339 173.825 504.726 176.793 516.597 176.793C532.918 176.793 545.531 170.859 553.692 158.986L581.142 174.567ZM470.598 115.215H553.692C551.466 104.086 547.015 95.9247 539.595 89.9895C532.177 84.0544 523.274 81.0873 512.886 81.0873C501.758 81.0873 492.113 84.0544 484.695 90.7312C477.276 97.4093 472.824 105.57 470.598 115.215ZM156.771 20.9924C156.771 9.86384 147.868 0.960938 136.74 0.960938C125.611 0.960938 116.708 9.86384 116.708 20.9924C116.708 32.121 125.611 41.0239 136.74 41.0239C147.868 41.0239 156.771 32.121 156.771 20.9924ZM772.555 203.502L811.133 55.1203H777.006L753.265 159.729H751.04L723.589 55.1203H688.719L660.526 159.729H658.3L634.56 55.1203H600.432L639.011 203.502H678.333L705.041 98.8927H707.267L733.975 203.502H772.555ZM409.763 203.502V111.505C409.763 92.9576 404.569 78.1192 394.182 67.7326C383.795 56.604 370.441 51.4107 353.377 51.4107C335.571 51.4107 318.506 61.0554 309.604 76.6358H307.378C299.96 61.0554 284.379 51.4107 266.574 51.4107C249.51 51.4107 234.672 59.5717 226.511 72.9259H225.028V55.1203H190.898V203.502H225.028V120.408C225.028 108.538 227.994 98.8927 234.672 92.2158C240.608 86.2808 248.026 82.5709 256.93 82.5709C265.09 82.5709 271.767 85.5379 276.218 90.7312C280.67 95.9247 282.896 104.086 282.896 113.731V203.502H317.023V120.408C317.023 108.538 319.991 98.8927 325.926 92.2158C331.12 86.2808 339.28 83.3127 348.183 83.3127C356.345 83.3127 363.022 86.2808 368.214 91.4741C373.408 96.6675 375.633 104.828 375.633 114.473V204.244H409.763V203.502ZM153.804 203.502V55.1203H119.676V203.502H153.804ZM1139.8 184.211C1153.89 169.374 1161.31 150.826 1161.31 128.569C1161.31 107.054 1153.89 87.7642 1139.8 72.9259C1125.7 58.0878 1107.9 50.6688 1088.61 50.6688C1069.32 50.6688 1050.03 59.5717 1038.16 72.9259H1035.93V9.86384H1001.8V202.761H1035.93V184.211H1038.16C1050.03 198.308 1070.06 207.211 1089.35 207.211C1109.38 207.211 1125.7 199.05 1139.8 184.211ZM1114.57 95.9247C1123.47 104.828 1127.19 115.215 1127.19 128.569C1127.19 141.923 1122.73 152.309 1114.57 161.214C1105.67 170.117 1095.28 173.825 1081.93 173.825C1068.58 173.825 1058.19 169.374 1049.29 161.214C1040.38 152.309 1036.67 141.923 1036.67 128.569C1036.67 115.215 1041.13 104.828 1049.29 95.9247C1058.19 87.0225 1068.58 83.3127 1081.93 83.3127C1095.28 83.3127 1105.67 87.7642 1114.57 95.9247Z" fill="black"/>
<path d="M1306.74 128.573L1228.08 50.6719L1205.83 73.6715L1260.73 128.573L1205.83 184.215L1228.08 207.214L1306.74 128.573Z" fill="#454CEE"/>
<path d="M1471.39 154.91C1463.02 167.548 1450.59 176.165 1433.57 176.165C1403.23 176.165 1383.61 156.057 1383.61 129.058C1383.61 100.91 1402.95 81.6649 1430.1 81.6649C1447.14 81.6649 1458.4 87.6972 1468.5 101.197L1493.06 85.1117C1483.23 65.2929 1459.55 51.2188 1428.65 51.2188C1381.29 51.2188 1349.52 84.8242 1349.52 129.058C1349.52 176.165 1382.16 206.611 1430.38 206.611C1456.37 206.611 1482.36 193.974 1494.78 169.845L1471.39 154.91Z" fill="#454CEE"/>
<path d="M1945.33 183.776C1931.24 169.044 1923.83 150.63 1923.83 128.532C1923.83 107.171 1931.24 88.0204 1945.33 73.2891C1959.43 58.5573 1977.24 51.1915 1996.53 51.1915C2015.82 51.1915 2035.11 60.0304 2046.98 73.2891H2049.21V10.6797H2083.34V202.19H2049.21V183.776H2046.98C2035.11 197.77 2015.07 206.61 1995.78 206.61C1975.75 206.61 1959.43 198.507 1945.33 183.776ZM1970.56 96.1232C1961.66 104.961 1957.95 115.274 1957.95 128.532C1957.95 141.79 1962.41 152.103 1970.56 160.942C1979.47 169.781 1989.85 173.463 2003.2 173.463C2016.56 173.463 2026.95 169.044 2035.85 160.942C2044.76 152.103 2048.47 141.79 2048.47 128.532C2048.47 115.274 2044.02 104.961 2035.85 96.1232C2026.95 87.2841 2016.56 83.6007 2003.2 83.6007C1989.85 83.6007 1979.47 88.0203 1970.56 96.1232Z" fill="#454CEE"/>
<path d="M1518.42 203.231H1552.55V10.6797H1518.42V203.231Z" fill="#454CEE"/>
<path d="M1899.14 203.074H1865.08V187.468C1860.31 193.266 1854.3 197.91 1847.47 201.051C1840.65 204.192 1833.21 205.751 1825.7 205.608C1784.83 205.608 1762.66 184.9 1762.66 139.498V54.6406H1796.74V136.357C1796.74 157.943 1803.26 175.543 1828.84 175.543C1845.73 175.543 1856.85 166.456 1865.08 150.004V54.6406H1899.14V203.074Z" fill="#454CEE"/>
<path d="M1579.59 129.058C1579.59 173.866 1611.95 206.611 1657.14 206.611C1702.89 206.611 1734.98 173.866 1734.98 129.058C1734.98 83.9631 1702.89 51.2188 1657.14 51.2188C1611.11 51.2188 1579.59 83.9631 1579.59 129.058ZM1612.5 129.058C1612.5 99.761 1631.76 81.6649 1657.14 81.6649C1682.25 81.6649 1702.06 100.048 1702.06 129.058C1702.06 157.781 1683.65 176.165 1657.14 176.165C1630.63 176.165 1612.5 156.057 1612.5 129.058Z" fill="#454CEE"/>
</g>
<defs>
<clipPath id="clip0_1720_4737">
<rect width="2083.71" height="208" fill="white"/>
</clipPath>
</defs>
</svg>
