<svg width="583" height="208" viewBox="0 0 583 208" fill="none" xmlns="http://www.w3.org/2000/svg">
<g clip-path="url(#clip0_1714_4737)">
<path fill-rule="evenodd" clip-rule="evenodd" d="M237.209 26.8556V62.365H250.599V51.5398H272.592C275.179 51.6051 277.693 50.6812 279.624 48.9552C280.52 48.2347 281.243 47.3224 281.741 46.2853C282.24 45.2482 282.5 44.113 282.503 42.9623V35.4707C282.5 34.3199 282.24 33.1844 281.741 32.1474C281.243 31.1104 280.52 30.1982 279.624 29.4775C277.697 27.7452 275.18 26.8199 272.592 26.893L237.209 26.8556ZM267.58 45.584H250.599V33.2607H269.001V45.4716L267.58 45.584ZM368.568 62.5147H379.527L369.091 51.6896L371.822 51.2777C374.241 51.0989 376.513 50.0476 378.218 48.3183C379.422 46.8536 380.071 45.0095 380.05 43.1121V35.6205C380.073 34.4749 379.851 33.3376 379.399 32.2847C378.948 31.2318 378.277 30.2876 377.432 29.515C376.605 28.6853 375.618 28.0319 374.532 27.5942C373.445 27.1564 372.282 26.9434 371.111 26.9679H337.448V62.4773H349.567V51.5398H359.067L368.717 62.4024L368.568 62.5147ZM349.866 45.584V33.2607H368.044V45.4716H349.791L349.866 45.584ZM331.763 33.7102V27.0054H296.231C295.095 27.0004 293.969 27.2208 292.918 27.6539C291.868 28.087 290.913 28.7241 290.11 29.5286C289.307 30.3331 288.671 31.2889 288.238 32.3409C287.806 33.393 287.585 34.5203 287.59 35.658V53.8249C287.582 54.9718 287.815 56.1079 288.272 57.1596C288.729 58.2112 289.402 59.1551 290.246 59.9301C291.034 60.7501 291.982 61.399 293.031 61.8371C294.079 62.2751 295.206 62.4931 296.343 62.4773H331.876V55.6977H299.485V46.9701L324.208 47.1573V41.8383L299.223 41.6511V33.7102H331.763ZM431.891 33.7102V27.0054H396.47C395.334 27.0004 394.209 27.2208 393.158 27.6539C392.107 28.087 391.153 28.7241 390.35 29.5286C389.547 30.3331 388.91 31.2889 388.478 32.3409C388.045 33.393 387.825 34.5203 387.83 35.658V62.5147H399.5V49.9665L424.224 50.1541V44.9475H399.5V33.7102H431.891ZM482.123 33.7102V27.0054H446.551C445.415 27.0004 444.292 27.2208 443.24 27.6539C442.191 28.087 441.235 28.7241 440.432 29.5286C439.629 30.3331 438.992 31.2889 438.56 32.3409C438.127 33.393 437.907 34.5203 437.911 35.658V53.8249C437.911 54.9747 438.148 56.1125 438.61 57.1641C439.075 58.2162 439.754 59.1585 440.606 59.9301C441.393 60.7501 442.341 61.399 443.389 61.8371C444.438 62.2751 445.565 62.4931 446.701 62.4773H482.273V55.6977H449.883V46.9701L474.606 47.1573V41.8383L449.883 41.6511V33.7102H482.123ZM532.467 33.7102V26.8556H496.895C495.76 26.8506 494.636 27.071 493.584 27.5041C492.536 27.9372 491.579 28.5743 490.776 29.3788C489.973 30.1832 489.337 31.1391 488.904 32.1911C488.471 33.2431 488.251 34.3705 488.255 35.5081V53.6747C488.23 54.82 488.442 55.9582 488.879 57.0161C489.316 58.0739 489.973 59.0287 490.801 59.8178C491.591 60.6323 492.54 61.278 493.588 61.7156C494.636 62.1532 495.76 62.3741 496.895 62.365H532.318V55.5854H499.928V33.7102H532.467ZM582.4 27.0054H538.599V33.7102H553.563V62.5147H566.842V33.7102H582.138L582.4 27.0054Z" fill="white"/>
<path fill-rule="evenodd" clip-rule="evenodd" d="M329.931 145.485H303.262C302.115 145.47 300.977 145.688 299.916 146.125C298.855 146.564 297.894 147.212 297.091 148.032C296.262 148.821 295.608 149.776 295.17 150.834C294.732 151.892 294.519 153.03 294.547 154.175V172.304C294.522 173.449 294.735 174.587 295.173 175.644C295.611 176.702 296.264 177.657 297.091 178.447C297.896 179.262 298.858 179.905 299.919 180.336C300.98 180.768 302.117 180.979 303.262 180.957H329.931C331.092 180.981 332.247 180.772 333.326 180.341C334.406 179.909 335.388 179.266 336.214 178.447C337.043 177.658 337.697 176.704 338.135 175.645C338.573 174.587 338.785 173.449 338.757 172.304V154.175C338.785 153.03 338.573 151.892 338.135 150.834C337.697 149.776 337.043 148.821 336.214 148.032C335.395 147.202 334.415 146.547 333.335 146.109C332.254 145.671 331.096 145.459 329.931 145.485ZM327.05 174.289H306.217V152.227H327.05V174.289ZM351.1 174.739V180.994H386.222C388.719 181.037 391.14 180.126 392.992 178.447C393.87 177.693 394.572 176.756 395.05 175.701C395.529 174.647 395.77 173.5 395.759 172.342V167.847C395.808 166.82 395.597 165.798 395.146 164.875C394.695 163.951 394.018 163.157 393.179 162.565C391.108 160.972 388.572 160.104 385.96 160.093H363.967V151.74H395.759V145.447H360.526C358.042 145.395 355.637 146.323 353.831 148.032C352.983 148.788 352.307 149.718 351.849 150.758C351.391 151.799 351.161 152.925 351.175 154.063V156.647C351.144 157.749 351.356 158.843 351.796 159.853C352.235 160.863 352.892 161.764 353.719 162.49C355.571 164.38 358.072 165.491 360.713 165.599H382.78V174.852H351.1V174.739ZM448.086 145.485H404.325V152.227H419.511V180.994H432.789V152.227H448.086V145.485ZM468.507 145.485H456.314V180.994H468.47V145.485H468.507ZM513.876 180.994H525.661V154.175C525.686 153.03 525.474 151.892 525.037 150.834C524.601 149.776 523.943 148.821 523.116 148.032C522.329 147.212 521.381 146.563 520.333 146.125C519.284 145.687 518.157 145.469 517.021 145.485H481.449C481.449 157.321 481.449 169.158 481.449 180.994H493.043V152.227H513.989V180.994H513.876ZM582.4 152.077V145.447H547.127C545.979 145.426 544.839 145.641 543.778 146.079C542.718 146.517 541.757 147.169 540.958 147.995C540.138 148.799 539.489 149.762 539.053 150.824C538.616 151.886 538.399 153.026 538.412 154.175V172.304C538.395 173.468 538.616 174.623 539.061 175.699C539.502 176.775 540.163 177.748 540.995 178.56C541.781 179.394 542.734 180.056 543.791 180.5C544.847 180.946 545.983 181.165 547.127 181.144H573.572C574.737 181.167 575.889 180.949 576.967 180.504C578.04 180.059 579.009 179.398 579.821 178.56C581.231 177.329 582.15 175.624 582.4 173.765V164.326H570.506V174.102H550.272V152.077H582.4ZM269.3 145.485V161.067H249.551V145.485H237.396V180.994H249.551V167.285H269.3V180.994H281.718V145.485H269.3Z" fill="white"/>
<path fill-rule="evenodd" clip-rule="evenodd" d="M255.312 128.555H264.214V121.662H272.779C273.937 121.695 275.088 121.489 276.163 121.057C277.237 120.625 278.211 119.977 279.026 119.153C279.859 118.366 280.519 117.412 280.964 116.354C281.408 115.297 281.627 114.157 281.606 113.01V94.8432C281.627 93.6959 281.408 92.5565 280.964 91.4986C280.519 90.4407 279.859 89.4877 279.026 88.7002C278.209 87.8761 277.235 87.2259 276.162 86.7882C275.089 86.3502 273.938 86.1343 272.779 86.153H246.111C244.966 86.131 243.829 86.3423 242.768 86.7737C241.707 87.2051 240.745 87.8478 239.939 88.6627C239.111 89.4523 238.456 90.4066 238.018 91.4645C237.58 92.5224 237.368 93.6606 237.396 94.8058V112.973C237.368 114.117 237.58 115.256 238.018 116.314C238.456 117.372 239.111 118.326 239.939 119.116C240.745 119.931 241.707 120.573 242.768 121.005C243.829 121.436 244.966 121.647 246.111 121.625H255.312V128.517V128.555ZM264.214 108.065H255.312V114.883H249.066V92.8955H269.862V114.995H264.214V108.065ZM327.088 86.153V114.92H306.143V86.153H294.66V107.429V112.785C294.631 113.951 294.845 115.109 295.289 116.187C295.734 117.264 296.399 118.236 297.241 119.041C298.061 119.882 299.046 120.546 300.133 120.991C301.22 121.436 302.387 121.652 303.562 121.625H330.417C331.556 121.644 332.687 121.432 333.741 121C334.795 120.569 335.751 119.928 336.551 119.116C337.372 118.321 338.022 117.365 338.459 116.308C338.897 115.252 339.113 114.116 339.094 112.973V86.153H327.088ZM383.903 121.625H395.461V112.973V94.8432C395.486 93.6984 395.273 92.5611 394.835 91.5032C394.397 90.4457 393.744 89.491 392.917 88.7002C392.124 87.889 391.175 87.2483 390.127 86.8165C389.079 86.3851 387.953 86.1721 386.82 86.1904H360.302C359.16 86.1755 358.026 86.3889 356.966 86.8174C355.907 87.2458 354.944 87.8815 354.133 88.6869C353.321 89.4922 352.679 90.4515 352.242 91.5086C351.804 92.5656 351.582 93.6992 351.587 94.8432V113.047V121.662H363.369V109.452H383.94V121.662L383.903 121.625ZM383.903 104.058H363.331V92.8207H383.903V104.058ZM420.597 86.0781H408.589V112.785C408.584 113.947 408.809 115.099 409.252 116.172C409.695 117.246 410.347 118.221 411.17 119.041C411.956 119.875 412.908 120.537 413.964 120.981C415.02 121.426 416.158 121.646 417.302 121.625H446.514V114.658H420.335V86.153L420.597 86.0781ZM468.433 86.0781H456.315V121.55H468.47V86.153L468.433 86.0781ZM525.25 86.0781H481.487V92.8955H496.671V121.662H509.95V92.8955H525.25V86.153V86.0781ZM569.721 86.0781V101.735H550.793V86.153H538.192V99.3007C538.175 100.443 538.404 101.576 538.862 102.622C539.319 103.669 539.997 104.605 540.846 105.368C541.72 106.21 542.751 106.868 543.883 107.305C545.01 107.743 546.217 107.95 547.427 107.916H554.012V121.7H566.879V107.991H573.573C575.694 108.008 577.753 107.261 579.376 105.886C580.994 104.511 582.067 102.6 582.4 100.499V86.153L569.721 86.0781Z" fill="white"/>
<path fill-rule="evenodd" clip-rule="evenodd" d="M30.9322 0H176.803C184.994 0.0296618 192.841 3.30403 198.63 9.10803C204.418 14.912 207.678 22.774 207.698 30.9771V177.06C207.668 185.257 204.404 193.109 198.617 198.905C192.829 204.701 184.988 207.97 176.803 208H30.9322C22.7151 207.98 14.8419 204.695 9.04205 198.865C3.24223 193.036 -0.00991328 185.14 2.27005e-05 176.911V30.8273C0.0591444 22.6438 3.34177 14.8144 9.13415 9.04168C14.9265 3.26893 22.7603 0.0195295 30.9322 0ZM30.9322 5.39386C24.163 5.41362 17.6767 8.11533 12.8901 12.9089C8.10355 17.7024 5.40575 24.1981 5.38604 30.9771V177.06C5.4058 183.836 8.1048 190.328 12.8924 195.115C17.68 199.903 24.1664 202.596 30.9322 202.606H176.803C183.562 202.587 190.039 199.889 194.819 195.102C199.598 190.316 202.292 183.83 202.312 177.06V30.9771C202.302 24.2015 199.613 17.7058 194.832 12.9111C190.052 8.11658 183.569 5.41366 176.803 5.39386H30.9322Z" fill="#47CFED"/>
<path fill-rule="evenodd" clip-rule="evenodd" d="M153.352 28.7665H172.802C173.073 27.6781 173.706 26.7144 174.596 26.0337C175.486 25.3531 176.582 24.9959 177.701 25.0207C179.071 25.0787 180.365 25.6646 181.313 26.6559C182.261 27.6472 182.79 28.9671 182.788 30.3397C182.742 31.6859 182.187 32.9642 181.236 33.9167C180.285 34.8691 179.008 35.4247 177.664 35.4713C176.544 35.4962 175.449 35.139 174.559 34.4583C173.668 33.7777 173.036 32.814 172.764 31.7256H153.352V28.7665ZM152.679 175.711H172.802C173.067 174.619 173.698 173.652 174.59 172.97C175.481 172.288 176.58 171.934 177.701 171.965C178.99 172.076 180.19 172.666 181.064 173.62C181.939 174.573 182.424 175.821 182.424 177.116C182.424 178.41 181.939 179.658 181.064 180.612C180.19 181.566 178.99 182.156 177.701 182.266C176.582 182.291 175.486 181.934 174.596 181.253C173.706 180.572 173.073 179.609 172.802 178.52H152.642V175.412L152.679 175.711ZM153.352 59.5938H172.802C173.067 58.5022 173.698 57.5346 174.59 56.8528C175.481 56.171 176.58 55.8161 177.701 55.8481C179.061 55.8481 180.364 56.3885 181.325 57.3511C182.286 58.3134 182.826 59.6188 182.826 60.9799C182.826 62.3406 182.286 63.6461 181.325 64.6083C180.364 65.5709 179.061 66.1113 177.701 66.1113C176.58 66.1433 175.481 65.7885 174.59 65.1066C173.698 64.4248 173.067 63.4576 172.802 62.3656H153.352V59.5938Z" fill="white"/>
<path fill-rule="evenodd" clip-rule="evenodd" d="M54.0846 175.711H34.7847C34.4637 174.685 33.8127 173.794 32.9331 173.177C32.0535 172.561 30.9949 172.253 29.9223 172.302C28.765 172.548 27.7271 173.184 26.9823 174.105C26.2375 175.025 25.8312 176.174 25.8312 177.359C25.8312 178.544 26.2375 179.692 26.9823 180.613C27.7271 181.533 28.765 182.17 29.9223 182.416C31.0438 182.447 32.1422 182.093 33.0341 181.411C33.9259 180.729 34.557 179.762 34.8221 178.67H54.1221V175.561L54.0846 175.711ZM54.4212 28.7659H34.7847C34.4924 27.7083 33.8546 26.7794 32.9732 26.1276C32.0917 25.4757 31.0176 25.1386 29.9223 25.17C28.5744 25.216 27.2936 25.7704 26.3365 26.722C25.3794 27.6736 24.8165 28.9521 24.7607 30.3016C24.8073 31.6577 25.3661 32.9456 26.3242 33.905C27.2822 34.8645 28.5682 35.4241 29.9223 35.4707C31.0438 35.5025 32.1422 35.1479 33.0341 34.4662C33.9259 33.7844 34.557 32.8168 34.8221 31.725H54.4586V28.7659H54.4212ZM54.4212 59.7056H34.7847C34.4843 58.6585 33.842 57.7425 32.9605 57.1043C32.079 56.4662 31.0093 56.1421 29.9223 56.1846C28.5633 56.1846 27.2599 56.7254 26.299 57.6876C25.338 58.6498 24.7981 59.9552 24.7981 61.3164C24.7981 62.6771 25.338 63.9825 26.299 64.9447C27.2599 65.9073 28.5633 66.4477 29.9223 66.4477C31.0455 66.4868 32.1474 66.1349 33.0406 65.4518C33.9339 64.7691 34.5635 63.7974 34.8221 62.702H54.4586L54.4212 59.7056Z" fill="white"/>
<path fill-rule="evenodd" clip-rule="evenodd" d="M38.7495 126.42V148.482C38.7495 150.837 37.8156 153.095 36.1532 154.759C34.4908 156.424 32.2361 157.359 29.8851 157.359C27.5341 157.359 25.2793 156.424 23.6169 154.759C21.9545 153.095 21.0206 150.837 21.0206 148.482V117.542C21.0206 115.178 21.9585 112.911 23.6279 111.239C25.2973 109.567 27.5616 108.628 29.9225 108.628H81.0895V99.1885H23.9006C21.5496 99.1885 19.2949 98.2529 17.6325 96.5881C15.9701 94.9232 15.0361 92.6656 15.0361 90.311C15.0361 87.9565 15.9701 85.6984 17.6325 84.0336C19.2949 82.3688 21.5496 81.4336 23.9006 81.4336H89.9541C92.302 81.4436 94.5509 82.3821 96.2111 84.0448C97.8718 85.7072 98.8086 87.9594 98.8186 90.311V117.542C98.8086 119.894 97.8718 122.146 96.2111 123.809C94.5509 125.471 92.302 126.41 89.9541 126.42H38.7495ZM23.7884 86.4905C23.0486 86.4905 22.3255 86.7101 21.7104 87.1216C21.0953 87.533 20.6159 88.1183 20.3328 88.8026C20.0497 89.4869 19.9757 90.2403 20.12 90.9666C20.2643 91.6934 20.6205 92.3607 21.1436 92.8848C21.6667 93.4086 22.3331 93.7651 23.0587 93.9098C23.7842 94.0542 24.5363 93.9801 25.2197 93.6969C25.9032 93.4131 26.4874 92.9331 26.8983 92.317C27.3093 91.7009 27.5287 90.977 27.5287 90.2362C27.5287 89.2427 27.1346 88.2897 26.4332 87.5875C25.7317 86.8849 24.7804 86.4905 23.7884 86.4905ZM29.9225 144.661C29.1827 144.661 28.4596 144.881 27.8445 145.293C27.2294 145.704 26.75 146.289 26.4669 146.974C26.1838 147.658 26.1097 148.411 26.2541 149.138C26.3984 149.864 26.7546 150.532 27.2777 151.056C27.8008 151.58 28.4672 151.936 29.1928 152.081C29.9183 152.226 30.6704 152.151 31.3538 151.868C32.0373 151.584 32.6214 151.104 33.0324 150.488C33.4434 149.872 33.6627 149.148 33.6627 148.407C33.6627 147.414 33.2687 146.461 32.5672 145.758C31.8658 145.056 30.9144 144.661 29.9225 144.661Z" fill="white"/>
<path fill-rule="evenodd" clip-rule="evenodd" d="M61.4529 135.895H146.096C148.93 135.905 151.645 137.036 153.649 139.043C155.653 141.05 156.783 143.769 156.793 146.607C156.783 149.446 155.653 152.165 153.649 154.171C151.645 156.178 148.93 157.31 146.096 157.32H61.4529C58.6191 157.31 55.9039 156.178 53.9 154.171C51.8957 152.165 50.7658 149.446 50.7559 146.607C50.7658 143.769 51.8957 141.05 53.9 139.043C55.9039 137.036 58.6191 135.905 61.4529 135.895ZM146.096 142.787C145.356 142.787 144.633 143.006 144.018 143.418C143.403 143.83 142.923 144.415 142.64 145.099C142.357 145.784 142.283 146.537 142.427 147.263C142.572 147.99 142.928 148.657 143.451 149.181C143.974 149.705 144.64 150.062 145.366 150.206C146.091 150.351 146.844 150.276 147.527 149.993C148.211 149.709 148.795 149.229 149.206 148.613C149.617 147.998 149.836 147.273 149.836 146.532C149.836 145.539 149.442 144.586 148.74 143.884C148.039 143.181 147.088 142.787 146.096 142.787ZM60.967 142.787C60.2269 142.787 59.5039 143.006 58.8887 143.418C58.2738 143.83 57.7942 144.415 57.5113 145.099C57.228 145.784 57.1539 146.537 57.2983 147.263C57.4426 147.99 57.7992 148.657 58.3221 149.181C58.845 149.705 59.5114 150.062 60.2373 150.206C60.9628 150.351 61.7145 150.276 62.398 149.993C63.0815 149.709 63.6656 149.229 64.0766 148.613C64.4876 147.998 64.7072 147.273 64.7072 146.532C64.7072 145.539 64.3129 144.586 63.6115 143.884C62.9101 143.181 61.9587 142.787 60.967 142.787ZM103.793 142.787C103.053 142.787 102.33 143.006 101.715 143.418C101.1 143.83 100.621 144.415 100.338 145.099C100.054 145.784 99.9803 146.537 100.125 147.263C100.269 147.99 100.625 148.657 101.148 149.181C101.671 149.705 102.338 150.062 103.063 150.206C103.789 150.351 104.541 150.276 105.224 149.993C105.908 149.709 106.492 149.229 106.903 148.613C107.314 147.998 107.533 147.273 107.533 146.532C107.533 145.539 107.139 144.586 106.438 143.884C105.736 143.181 104.785 142.787 103.793 142.787Z" fill="#70DB70"/>
<path fill-rule="evenodd" clip-rule="evenodd" d="M61.4529 50.5312H146.096C148.93 50.5412 151.645 51.6728 153.649 53.68C155.653 55.6867 156.783 58.4057 156.793 61.2441C156.783 64.082 155.653 66.8014 153.649 68.8082C151.645 70.815 148.93 71.9469 146.096 71.9569H61.4529C58.6191 71.9469 55.9039 70.815 53.9 68.8082C51.8957 66.8014 50.7658 64.082 50.7559 61.2441C50.7658 58.4057 51.8957 55.6867 53.9 53.68C55.9039 51.6728 58.6191 50.5412 61.4529 50.5312ZM146.096 57.4235C145.356 57.4235 144.633 57.6432 144.018 58.0546C143.403 58.466 142.923 59.0513 142.64 59.7357C142.357 60.42 142.283 61.1734 142.427 61.8997C142.572 62.6265 142.928 63.2937 143.451 63.8179C143.974 64.3416 144.64 64.6981 145.366 64.8429C146.091 64.9872 146.844 64.9132 147.527 64.6295C148.211 64.3462 148.795 63.8661 149.206 63.25C149.617 62.6339 149.836 61.9101 149.836 61.1692C149.836 60.1758 149.442 59.2227 148.74 58.5205C148.039 57.8179 147.088 57.4235 146.096 57.4235ZM60.967 57.4235C60.2269 57.4235 59.5039 57.6432 58.8887 58.0546C58.2738 58.466 57.7942 59.0513 57.5113 59.7357C57.228 60.42 57.1539 61.1734 57.2983 61.8997C57.4426 62.6265 57.7992 63.2937 58.3221 63.8179C58.845 64.3416 59.5114 64.6981 60.2373 64.8429C60.9628 64.9872 61.7145 64.9132 62.398 64.6295C63.0815 64.3462 63.6656 63.8661 64.0766 63.25C64.4876 62.6339 64.7072 61.9101 64.7072 61.1692C64.7072 60.1758 64.3129 59.2227 63.6115 58.5205C62.9101 57.8179 61.9587 57.4235 60.967 57.4235ZM103.793 57.4235C103.053 57.4235 102.33 57.6432 101.715 58.0546C101.1 58.466 100.621 59.0513 100.338 59.7357C100.054 60.42 99.9803 61.1734 100.125 61.8997C100.269 62.6265 100.625 63.2937 101.148 63.8179C101.671 64.3416 102.338 64.6981 103.063 64.8429C103.789 64.9872 104.541 64.9132 105.224 64.6295C105.908 64.3462 106.492 63.8661 106.903 63.25C107.314 62.6339 107.533 61.9101 107.533 61.1692C107.533 60.1758 107.139 59.2227 106.438 58.5205C105.736 57.8179 104.785 57.4235 103.793 57.4235Z" fill="#47CFED"/>
<path fill-rule="evenodd" clip-rule="evenodd" d="M61.4525 19.5898H146.095C148.929 19.5997 151.645 20.7316 153.649 22.7385C155.652 24.7454 156.783 27.4645 156.793 30.3026C156.812 31.7238 156.551 33.1348 156.022 34.4539C155.494 35.7731 154.71 36.9742 153.715 37.9879C152.72 39.0016 151.534 39.8077 150.227 40.3595C148.919 40.9113 147.515 41.1979 146.095 41.2027H61.4525C60.0364 41.1978 58.6354 40.9124 57.3299 40.363C56.0245 39.8135 54.8406 39.0108 53.8464 38.0011C52.8521 36.9914 52.0671 35.7947 51.5367 34.4799C51.0059 33.165 50.7405 31.7581 50.7555 30.3401C50.7655 27.5019 51.8953 24.7828 53.8996 22.7759C55.9035 20.769 58.6187 19.6372 61.4525 19.6273V19.5898ZM146.095 26.5194C145.356 26.5194 144.633 26.7391 144.017 27.1507C143.402 27.5623 142.923 28.1473 142.64 28.8317C142.357 29.5162 142.283 30.2693 142.427 30.9959C142.571 31.7225 142.927 32.39 143.451 32.9138C143.974 33.4377 144.64 33.7944 145.366 33.9389C146.091 34.0834 146.843 34.0093 147.527 33.7258C148.21 33.4423 148.794 32.9622 149.205 32.3462C149.616 31.7302 149.835 31.006 149.835 30.2652C149.835 29.2717 149.442 28.319 148.74 27.6165C148.039 26.9141 147.087 26.5194 146.095 26.5194ZM60.9662 26.5194C59.9745 26.5194 59.0231 26.9141 58.3217 27.6165C57.6203 28.319 57.2259 29.2717 57.2259 30.2652C57.2259 31.2586 57.6203 32.2113 58.3217 32.9138C59.0231 33.6162 59.9745 34.0109 60.9662 34.0109C61.9584 34.0109 62.9098 33.6162 63.6111 32.9138C64.3125 32.2113 64.7069 31.2586 64.7069 30.2652C64.7069 29.2717 64.3125 28.319 63.6111 27.6165C62.9098 26.9141 61.9584 26.5194 60.9662 26.5194ZM103.793 26.5194C103.053 26.5194 102.33 26.7391 101.715 27.1507C101.1 27.5623 100.62 28.1473 100.337 28.8317C100.054 29.5162 99.9799 30.2693 100.124 30.9959C100.269 31.7225 100.625 32.39 101.148 32.9138C101.671 33.4377 102.337 33.7944 103.063 33.9389C103.788 34.0834 104.541 34.0093 105.224 33.7258C105.908 33.4423 106.492 32.9622 106.903 32.3462C107.314 31.7302 107.533 31.006 107.533 30.2652C107.533 29.2717 107.139 28.319 106.438 27.6165C105.736 26.9141 104.785 26.5194 103.793 26.5194Z" fill="#DD97F7"/>
<path fill-rule="evenodd" clip-rule="evenodd" d="M61.4529 166.797H146.096C148.936 166.807 151.657 167.944 153.662 169.959C155.667 171.974 156.793 174.703 156.793 177.547C156.783 180.386 155.653 183.104 153.649 185.111C151.645 187.118 148.93 188.25 146.096 188.26H61.4529C58.6191 188.25 55.9039 187.118 53.9 185.111C51.8957 183.104 50.7658 180.386 50.7559 177.547C50.7559 174.703 51.8816 171.974 53.8867 169.959C55.8918 167.944 58.6124 166.807 61.4529 166.797ZM146.096 173.727C145.356 173.727 144.633 173.946 144.018 174.358C143.403 174.77 142.923 175.354 142.64 176.039C142.357 176.723 142.283 177.476 142.427 178.203C142.572 178.93 142.928 179.597 143.451 180.121C143.974 180.645 144.64 181.002 145.366 181.146C146.091 181.291 146.844 181.216 147.527 180.933C148.211 180.649 148.795 180.169 149.206 179.554C149.617 178.937 149.836 178.213 149.836 177.472C149.836 176.479 149.442 175.526 148.74 174.824C148.039 174.121 147.088 173.727 146.096 173.727ZM60.967 173.727C59.9748 173.727 59.0234 174.121 58.3221 174.824C57.6207 175.526 57.2267 176.479 57.2267 177.472C57.2267 178.466 57.6207 179.419 58.3221 180.121C59.0234 180.824 59.9748 181.218 60.967 181.218C61.9587 181.218 62.9101 180.824 63.6115 180.121C64.3129 179.419 64.7072 178.466 64.7072 177.472C64.7072 176.479 64.3129 175.526 63.6115 174.824C62.9101 174.121 61.9587 173.727 60.967 173.727ZM103.793 173.727C103.053 173.727 102.33 173.946 101.715 174.358C101.1 174.77 100.621 175.354 100.338 176.039C100.054 176.723 99.9803 177.476 100.125 178.203C100.269 178.93 100.625 179.597 101.148 180.121C101.671 180.645 102.338 181.002 103.063 181.146C103.789 181.291 104.541 181.216 105.224 180.933C105.908 180.649 106.492 180.169 106.903 179.554C107.314 178.937 107.533 178.213 107.533 177.472C107.533 176.479 107.139 175.526 106.438 174.824C105.736 174.121 104.785 173.727 103.793 173.727Z" fill="#FFDF52"/>
<path fill-rule="evenodd" clip-rule="evenodd" d="M117.594 81.582H183.647C185.999 81.582 188.253 82.5172 189.916 84.182C191.578 85.8469 192.512 88.1049 192.512 90.4595C192.512 92.814 191.578 95.0721 189.916 96.7365C188.253 98.4013 185.999 99.3369 183.647 99.3369H126.459V108.813H177.663C180.011 108.823 182.26 109.762 183.92 111.425C185.581 113.087 186.518 115.34 186.528 117.691V148.481C186.528 150.835 185.593 153.093 183.931 154.758C182.269 156.423 180.014 157.358 177.663 157.358C175.312 157.358 173.057 156.423 171.395 154.758C169.733 153.093 168.799 150.835 168.799 148.481V126.531H117.594C115.249 126.531 113.001 125.601 111.339 123.944C109.678 122.287 108.739 120.039 108.729 117.691V90.4595C108.739 88.1082 109.677 85.8556 111.337 84.1933C112.997 82.5305 115.246 81.592 117.594 81.582ZM177.663 144.66C176.923 144.66 176.2 144.88 175.585 145.291C174.97 145.703 174.491 146.288 174.207 146.972C173.925 147.657 173.85 148.41 173.994 149.137C174.139 149.863 174.495 150.531 175.018 151.054C175.541 151.578 176.208 151.935 176.934 152.079C177.659 152.224 178.411 152.15 179.094 151.866C179.778 151.583 180.362 151.103 180.773 150.487C181.184 149.871 181.403 149.147 181.403 148.406C181.403 147.412 181.009 146.46 180.308 145.757C179.606 145.055 178.655 144.66 177.663 144.66ZM183.647 86.6389C182.908 86.6389 182.185 86.8586 181.569 87.27C180.955 87.6818 180.475 88.2667 180.192 88.9511C179.909 89.6354 179.835 90.3888 179.979 91.1155C180.123 91.8418 180.48 92.5095 181.003 93.0333C181.526 93.557 182.192 93.9139 182.918 94.0583C183.643 94.2026 184.395 94.1286 185.079 93.8453C185.762 93.5616 186.346 93.0815 186.757 92.4654C187.168 91.8497 187.388 91.1255 187.388 90.3846C187.388 89.3912 186.994 88.4385 186.292 87.7359C185.591 87.0333 184.64 86.6389 183.647 86.6389Z" fill="white"/>
</g>
<defs>
<clipPath id="clip0_1714_4737">
<rect width="582.4" height="208" fill="white"/>
</clipPath>
</defs>
</svg>
