<svg width="169" height="50" viewBox="0 0 169 50" fill="none" xmlns="http://www.w3.org/2000/svg">
<path d="M71.7774 34.2933C69.7508 34.2933 68.0174 33.8933 66.5774 33.0933C65.1374 32.2933 64.0263 31.1733 63.2441 29.7333C62.4796 28.2755 62.0974 26.56 62.0974 24.5866C62.0974 23.111 62.3107 21.7866 62.7374 20.6133C63.1818 19.4221 63.8218 18.4088 64.6574 17.5732C65.493 16.7199 66.5063 16.0621 67.6974 15.5999C68.9063 15.1377 70.2663 14.9066 71.7774 14.9066C72.6663 14.9066 73.5641 15.0221 74.4708 15.2532C75.3952 15.4666 76.1953 15.7777 76.8708 16.1866C77.3153 16.4354 77.6175 16.7466 77.7775 17.1199C77.9375 17.4932 77.9819 17.8666 77.9108 18.2399C77.8575 18.6132 77.7064 18.9332 77.4575 19.1999C77.2264 19.4666 76.933 19.6355 76.5775 19.7066C76.2219 19.7777 75.8219 19.6977 75.3775 19.4666C74.8441 19.1466 74.2841 18.9155 73.6975 18.7732C73.1108 18.631 72.5152 18.5599 71.9108 18.5599C70.7197 18.5599 69.7152 18.7999 68.8974 19.2799C68.0974 19.7421 67.493 20.4177 67.0841 21.3066C66.6752 22.1955 66.4707 23.2888 66.4707 24.5866C66.4707 25.8666 66.6752 26.96 67.0841 27.8666C67.493 28.7733 68.0974 29.4666 68.8974 29.9466C69.7152 30.4089 70.7197 30.64 71.9108 30.64C72.4797 30.64 73.0575 30.5689 73.6441 30.4266C74.2486 30.2844 74.8264 30.0622 75.3775 29.76C75.8397 29.5289 76.2486 29.4489 76.6041 29.52C76.9775 29.5733 77.2797 29.7333 77.5108 30C77.7597 30.2489 77.9108 30.5511 77.9642 30.9066C78.0353 31.2622 77.9997 31.6178 77.8575 31.9733C77.7153 32.3289 77.4486 32.6311 77.0575 32.88C76.3997 33.3244 75.5908 33.6711 74.6308 33.92C73.6708 34.1689 72.7197 34.2933 71.7774 34.2933ZM85.6334 34.24C84.9578 34.24 84.4422 34.0533 84.0867 33.68C83.7311 33.3067 83.5534 32.7822 83.5534 32.1067V17.0932C83.5534 16.4177 83.7311 15.8932 84.0867 15.5199C84.4422 15.1466 84.9578 14.9599 85.6334 14.9599C86.2911 14.9599 86.7978 15.1466 87.1534 15.5199C87.5089 15.8932 87.6867 16.4177 87.6867 17.0932V32.1067C87.6867 32.7822 87.5089 33.3067 87.1534 33.68C86.8156 34.0533 86.3089 34.24 85.6334 34.24ZM96.0568 34.24C95.4345 34.24 94.9545 34.0711 94.6168 33.7333C94.2967 33.3778 94.1367 32.88 94.1367 32.24V17.0399C94.1367 16.3643 94.2967 15.8488 94.6168 15.4932C94.9545 15.1377 95.399 14.9599 95.9501 14.9599C96.4301 14.9599 96.7945 15.0577 97.0434 15.2532C97.3101 15.431 97.6123 15.7332 97.9501 16.1599L107.31 28.08H106.59V16.9332C106.59 16.311 106.75 15.831 107.07 15.4932C107.408 15.1377 107.888 14.9599 108.51 14.9599C109.132 14.9599 109.604 15.1377 109.924 15.4932C110.261 15.831 110.43 16.311 110.43 16.9332V32.32C110.43 32.9067 110.279 33.3778 109.977 33.7333C109.675 34.0711 109.266 34.24 108.75 34.24C108.252 34.24 107.852 34.1422 107.55 33.9467C107.266 33.7511 106.955 33.44 106.617 33.0133L97.2834 21.0933H97.9768V32.24C97.9768 32.88 97.8168 33.3778 97.4968 33.7333C97.1768 34.0711 96.6968 34.24 96.0568 34.24ZM118.988 34.24C118.313 34.24 117.788 34.0533 117.415 33.68C117.059 33.3067 116.882 32.7644 116.882 32.0533V17.3599C116.882 16.6666 117.068 16.1332 117.442 15.7599C117.815 15.3866 118.348 15.1999 119.042 15.1999H128.162C128.695 15.1999 129.095 15.3421 129.362 15.6266C129.646 15.8932 129.788 16.2843 129.788 16.7999C129.788 17.3332 129.646 17.7421 129.362 18.0266C129.095 18.2932 128.695 18.4266 128.162 18.4266H121.015V23.0133H127.575C128.108 23.0133 128.517 23.1555 128.802 23.4399C129.086 23.7066 129.228 24.0977 129.228 24.6133C129.228 25.1288 129.086 25.5288 128.802 25.8133C128.517 26.0977 128.108 26.24 127.575 26.24H121.015V32.0533C121.015 33.5111 120.339 34.24 118.988 34.24ZM142.81 34.2933C141.477 34.2933 140.295 34.1244 139.263 33.7867C138.25 33.4311 137.397 32.9155 136.703 32.24C136.01 31.5644 135.486 30.72 135.13 29.7066C134.792 28.6755 134.623 27.4844 134.623 26.1333V17.0666C134.623 16.3732 134.801 15.8488 135.157 15.4932C135.512 15.1377 136.028 14.9599 136.703 14.9599C137.361 14.9599 137.868 15.1377 138.223 15.4932C138.579 15.8488 138.757 16.3732 138.757 17.0666V26.16C138.757 27.6889 139.103 28.8444 139.797 29.6266C140.49 30.3911 141.495 30.7733 142.81 30.7733C144.126 30.7733 145.121 30.3911 145.797 29.6266C146.49 28.8444 146.837 27.6889 146.837 26.16V17.0666C146.837 16.3732 147.015 15.8488 147.37 15.4932C147.726 15.1377 148.232 14.9599 148.89 14.9599C149.548 14.9599 150.046 15.1377 150.384 15.4932C150.739 15.8488 150.917 16.3732 150.917 17.0666V26.1333C150.917 27.9289 150.606 29.44 149.984 30.6666C149.379 31.8755 148.472 32.7822 147.264 33.3867C146.072 33.9911 144.588 34.2933 142.81 34.2933Z" fill="#8476D6"/>
<path fill-rule="evenodd" clip-rule="evenodd" d="M10.7227 13.3334C10.7227 10.572 12.9612 8.33337 15.7227 8.33337H43.5006C46.2621 8.33337 48.5007 10.572 48.5007 13.3334C48.5007 16.0948 46.2621 18.3334 43.5006 18.3334H15.7227C12.9613 18.3334 10.7227 16.0948 10.7227 13.3334ZM15.1667 13.3334C15.1667 14.2539 15.9129 15.0001 16.8334 15.0001H20.1668C21.0873 15.0001 21.8335 14.2539 21.8335 13.3334C21.8335 12.413 21.0873 11.6668 20.1668 11.6668H16.8334C15.9129 11.6668 15.1667 12.413 15.1667 13.3334ZM41.2781 15.0001C40.3576 15.0001 39.6114 14.2539 39.6114 13.3334C39.6114 12.413 40.3576 11.6668 41.2781 11.6668C42.1986 11.6668 42.9448 12.413 42.9448 13.3334C42.9448 14.2539 42.1986 15.0001 41.2781 15.0001Z" fill="#8476D6"/>
<path fill-rule="evenodd" clip-rule="evenodd" d="M10.7227 24.4446C10.7227 21.6832 12.9613 19.4446 15.7228 19.4446H43.5007C45.3909 19.4446 47.0362 20.4935 47.8862 22.041C47.0216 21.7972 46.1095 21.6668 45.1669 21.6668C40.4078 21.6668 36.4252 24.9913 35.4147 29.4446H15.7228C12.9613 29.4446 10.7227 27.2061 10.7227 24.4446ZM35.2279 30.5558H15.7227C12.9612 30.5558 10.7227 32.7944 10.7227 35.5558C10.7227 38.3172 12.9613 40.5558 15.7227 40.5558H40.5811C37.3652 38.8933 35.1669 35.5368 35.1669 31.6669C35.1669 31.2913 35.1876 30.9206 35.2279 30.5558ZM15.1668 24.4446C15.1668 25.3651 15.913 26.1113 16.8335 26.1113H20.1669C21.0873 26.1113 21.8335 25.3651 21.8335 24.4446C21.8335 23.5241 21.0873 22.7779 20.1669 22.7779H16.8335C15.913 22.7779 15.1668 23.5241 15.1668 24.4446ZM15.1667 35.5558C15.1667 36.4763 15.9129 37.2225 16.8334 37.2225H20.1668C21.0873 37.2225 21.8335 36.4763 21.8335 35.5558C21.8335 34.6353 21.0873 33.8891 20.1668 33.8891H16.8334C15.9129 33.8891 15.1667 34.6353 15.1667 35.5558Z" fill="#8476D6"/>
<path fill-rule="evenodd" clip-rule="evenodd" d="M45.1665 39.4447C49.4621 39.4447 52.9443 35.9624 52.9443 31.6669C52.9443 27.3713 49.4621 23.889 45.1665 23.889C40.8709 23.889 37.3887 27.3713 37.3887 31.6669C37.3887 35.9624 40.8709 39.4447 45.1665 39.4447ZM49.7872 30.2809C50.249 29.8768 50.2958 29.1748 49.8917 28.713C49.4876 28.2512 48.7856 28.2044 48.3238 28.6084L44.5791 31.8851L42.5273 30.2437C42.0481 29.8603 41.3489 29.938 40.9656 30.4172C40.5822 30.8964 40.6599 31.5956 41.1391 31.979L43.9169 34.2012L44.643 34.782L45.3427 34.1698L49.7872 30.2809Z" fill="#DA0266"/>
</svg>
